<?xml version="1.0" encoding="UTF-8"?>
<svg width="560px" height="560px" viewBox="0 0 560 560" version="1.1" xmlns="http://www.w3.org/2000/svg" xmlns:xlink="http://www.w3.org/1999/xlink">
    <title>noun-business-to-business-3998995</title>
    <g id="Page-1" stroke="none" stroke-width="1" fill="none" fill-rule="evenodd">
        <g id="noun-business-to-business-3998995" fill="#FFFFFF" fill-rule="nonzero">
            <path d="M339.75,105 L455,105 L455,227.5 C455,237.1602 462.8398,245 472.5,245 C482.1602,245 490,237.1602 490,227.5 L490,87.5 C490,77.8398 482.1602,70 472.5,70 L339.75,70 L344.8789,64.8711 C351.7109,58.0391 351.7109,46.9611 344.8789,40.1251 C338.0547,33.2931 326.9569,33.2931 320.1329,40.1251 L285.1329,75.1251 C278.3009,81.9571 278.3009,93.0351 285.1329,99.8711 L320.1329,134.8711 C323.5431,138.293 328.0235,140 332.5039,140 C336.9843,140 341.4648,138.293 344.8749,134.8711 C351.7069,128.0391 351.7069,116.9611 344.8749,110.1251 L339.75,105 Z" id="Path"></path>
            <path d="M239.87,425.13 C233.0458,418.298 221.948,418.298 215.124,425.13 C208.292,431.962 208.292,443.04 215.124,449.876 L220.2529,455.001 L105.0029,455.001 L105.0029,332.501 C105.0029,322.8408 97.1631,315.001 87.5029,315.001 C77.8427,315.001 70.0029,322.8408 70.0029,332.501 L70.0029,472.501 C70.0029,482.1612 77.8427,490.001 87.5029,490.001 L220.2529,490.001 L215.124,495.1299 C208.292,501.9619 208.292,513.0399 215.124,519.8759 C218.5381,523.2939 223.0185,525.0009 227.499,525.0009 C231.9795,525.0009 236.4599,523.2939 239.87,519.872 L274.87,484.872 C281.702,478.04 281.702,466.962 274.87,460.126 L239.87,425.13 Z" id="Path"></path>
            <path d="M0,87.5 L0,262.5 C0,272.1602 7.8398,280 17.5,280 L35,280 L35,70 L17.5,70 C7.8398,70 0,77.8398 0,87.5 Z" id="Path"></path>
            <path d="M140,227.5 C140,217.8398 147.8398,210 157.5,210 C167.1602,210 175,217.8398 175,227.5 L175,280 L227.5,280 C237.1602,280 245,272.1602 245,262.5 L245,17.5 C245,7.8398 237.1602,0 227.5,0 L87.5,0 C77.8398,0 70,7.8398 70,17.5 L70,280 L140,280 L140,227.5 Z M157.5,70 C167.1602,70 175,77.8398 175,87.5 C175,97.1602 167.1602,105 157.5,105 C147.8398,105 140,97.1602 140,87.5 C140,77.8398 147.8398,70 157.5,70 Z M157.5,140 C167.1602,140 175,147.8398 175,157.5 C175,167.1602 167.1602,175 157.5,175 C147.8398,175 140,167.1602 140,157.5 C140,147.8398 147.8398,140 157.5,140 Z" id="Shape"></path>
            <path d="M315,367.5 L315,542.5 C315,552.1602 322.8398,560 332.5,560 L350,560 L350,350 L332.5,350 C322.8398,350 315,357.8398 315,367.5 Z" id="Path"></path>
            <path d="M542.5,280 L402.5,280 C392.8398,280 385,287.8398 385,297.5 L385,560 L455,560 L455,507.5 C455,497.8398 462.8398,490 472.5,490 C482.1602,490 490,497.8398 490,507.5 L490,560 L542.5,560 C552.1602,560 560,552.1602 560,542.5 L560,297.5 C560,287.8398 552.1602,280 542.5,280 Z M472.5,455 C462.8398,455 455,447.1602 455,437.5 C455,427.8398 462.8398,420 472.5,420 C482.1602,420 490,427.8398 490,437.5 C490,447.1602 482.1602,455 472.5,455 Z M472.5,385 C462.8398,385 455,377.1602 455,367.5 C455,357.8398 462.8398,350 472.5,350 C482.1602,350 490,357.8398 490,367.5 C490,377.1602 482.1602,385 472.5,385 Z" id="Shape"></path>
        </g>
    </g>
</svg>