<?xml version="1.0" encoding="UTF-8"?>
<svg width="468px" height="447px" viewBox="0 0 468 447" version="1.1" xmlns="http://www.w3.org/2000/svg" xmlns:xlink="http://www.w3.org/1999/xlink">
    <title>noun-data-driven-5486034</title>
    <g id="Page-1" stroke="none" stroke-width="1" fill="none" fill-rule="evenodd">
        <g id="noun-data-driven-5486034" transform="translate(0.290000, 0.925000)" fill="#FFFFFF" fill-rule="nonzero">
            <path d="M0,226.605 L67.477,226.605 L67.477,334.875 L0,334.875 L0,226.605 Z M374.79,237.062 C382.3369,239.1245 389.599,242.1284 396.399,246.0034 L407.286,240.4487 L421.634,233.144 L444.407,255.917 L437.0711,270.269 L431.5359,281.179 C435.4109,287.9681 438.4187,295.214 440.4929,302.753 L452.0979,306.5147 L467.4259,311.4952 L467.4259,343.7022 L452.0979,348.6788 L440.4849,352.4561 C438.4146,359.9991 435.4068,367.2531 431.5318,374.0461 L437.0709,384.9251 L444.3873,399.2801 L433.0043,410.6671 L421.6173,422.0621 L407.2693,414.7457 L396.3983,409.1949 C389.6014,413.0738 382.3473,416.0816 374.8003,418.148 L371.0347,429.761 L366.0581,445.089 L333.8351,445.089 L328.8546,429.761 L325.0694,418.144 C317.5303,416.0776 310.2804,413.0698 303.4914,409.1948 L292.5964,414.7417 L278.2604,422.062 L266.8734,410.675 L255.5104,399.28 L262.819,384.925 L268.3659,374.05 L268.369807,374.05 C264.490907,367.2531 261.483107,359.999 259.412807,352.452 L247.807807,348.6786 L232.479807,343.702 L232.483713,311.495 L247.811713,306.5145 L259.424713,302.7489 L259.420807,302.7489 C261.479407,295.2098 264.475507,287.9639 268.346607,281.1789 L262.791907,270.2839 L255.510707,255.9249 L266.897707,244.5379 L278.280707,233.1509 L292.635707,240.4673 L303.522707,246.0103 L303.526614,246.002488 C310.303914,242.131388 317.542614,239.127488 325.069614,237.061088 L328.843014,225.444088 L333.823514,210.116088 L366.038514,210.116088 L371.019014,225.444088 L374.784614,237.061088 L374.79,237.062 Z M349.938,282.21 L349.934094,282.21 C337.899094,282.21 326.352094,286.9912 317.840094,295.503 C309.328394,304.0147 304.547094,315.562 304.547094,327.601 C304.547094,339.636 309.328294,351.183 317.840094,359.695 C326.351794,368.2067 337.899094,372.988 349.934094,372.988 C361.973094,372.988 373.520094,368.2068 382.032094,359.695 C390.543794,351.1833 395.325094,339.636 395.325094,327.601 C395.325094,315.562 390.543894,304.015 382.032094,295.503 C373.520394,286.9913 361.973094,282.21 349.934094,282.21 L349.938,282.21 Z M318.528,0 L318.528,223.41 L326.2507,199.668 L373.6457,199.668 L383.0754,228.641 C384.06759,228.97303 385.0559,229.32069 386.0246,229.684 L386.0246,0.004 L318.528,0 Z M212.348,171.21 L212.348,334.88 L222.0042,334.88 L222.0042,303.903 L250.9772,294.4733 L250.9772,294.469394 C252.5163,289.867794 254.3756,285.379594 256.5475,281.035394 L242.7195,253.883394 L276.2355,220.360394 L279.8371,222.200194 L279.8371,171.212194 L212.348,171.21 Z M106.168,94.409 L173.656,94.409 L173.656,334.879 L106.168,334.879 L106.168,94.409 Z" id="Shape"></path>
        </g>
    </g>
</svg>