<?xml version="1.0" encoding="UTF-8"?>
<svg width="462px" height="500px" viewBox="0 0 462 500" version="1.1" xmlns="http://www.w3.org/2000/svg" xmlns:xlink="http://www.w3.org/1999/xlink">
    <title>noun-data-science-3680756</title>
    <g id="Page-1" stroke="none" stroke-width="1" fill="none" fill-rule="evenodd">
        <g id="noun-data-science-3680756" transform="translate(0.610000, 0.628000)" fill="#FFFFFF" fill-rule="nonzero">
            <path d="M230.39,135.622 C277.011,135.622 316.402,115.942 316.402,92.661 L316.402,71.294 C299.453,88.103 267.672,99.224 230.39,99.224 C193.105,99.224 161.316,88.103 144.378,71.294 L144.378,92.661 C144.378,115.942 183.761,135.622 230.39,135.622 Z" id="Path"></path>
            <path d="M230.39,86.102 C277.011,86.102 316.402,66.387 316.402,43.051 C316.402,19.715 277.011,-1.42108547e-14 230.39,-1.42108547e-14 C183.761,-1.42108547e-14 144.378,19.715 144.378,43.051 C144.378,66.387 183.761,86.102 230.39,86.102 Z" id="Path"></path>
            <path d="M379.49,459.462 C379.49,481.126 397.744,498.751 420.178,498.751 C442.569,498.751 460.78,481.118 460.78,459.462 C460.78,437.806 442.573,420.173 420.178,420.173 C397.74,420.176906 379.49,437.798 379.49,459.462 L379.49,459.462 Z" id="Path"></path>
            <path d="M230.39,185.232 C277.011,185.232 316.402,165.517 316.402,142.181 L316.402,120.849 C299.464,137.63 267.675,148.744 230.39,148.744 C193.105,148.744 161.316,137.631 144.378,120.849 L144.378,142.181 C144.378,165.517 183.761,185.232 230.39,185.232 Z" id="Path"></path>
            <path d="M316.4,191.802 L316.4,170.435 C299.451,187.244 267.67,198.365 230.388,198.365 C193.103,198.365 161.314,187.244 144.376,170.435 L144.376,191.802 C144.376,215.138 183.759,234.853 230.388,234.853 C277.009,234.853 316.4,215.138 316.4,191.802 Z" id="Path"></path>
            <path d="M189.7,459.462 C189.7,481.126 207.954,498.751 230.388,498.751 C252.822,498.751 271.076,481.118 271.076,459.462 C271.076,437.806 252.822,420.173 230.388,420.173 C207.954,420.176906 189.7,437.798 189.7,459.462 L189.7,459.462 Z" id="Path"></path>
            <path d="M-1.42108547e-14,459.462 C-1.42108547e-14,481.126 18.219,498.751 40.602,498.751 C63.036,498.751 81.29,481.118 81.29,459.462 C81.29,437.806 63.036,420.173 40.602,420.173 C18.207,420.176906 -1.42108547e-14,437.798 -1.42108547e-14,459.462 L-1.42108547e-14,459.462 Z" id="Path"></path>
            <path d="M40.6,407.052 C42.8227,407.052 45.0023,407.22778 47.1625,407.48169 L47.1625,329.96169 L223.8225,329.96169 L223.8225,407.46969 C225.9748,407.21578 228.1623,407.04 230.385,407.04 C232.6077,407.04 234.7952,407.21578 236.9475,407.46969 L236.9475,329.96169 L413.6075,329.96169 L413.6075,407.46969 C415.7598,407.21578 417.9395,407.04 420.17,407.04 C422.4005,407.04 424.5802,407.21578 426.7325,407.4775 L426.7325,323.3995 C426.7325,319.7784 423.7911,316.837 420.17,316.837 L236.94,316.837 L236.94,247.79 C234.7603,247.868126 232.5923,247.97359 230.3775,247.97359 C228.1627,247.97359 225.9947,247.86812 223.815,247.79 L223.815,316.837 L40.585,316.837 C36.9639,316.837 34.0225,319.7784 34.0225,323.3995 L34.0225,407.4775 C36.1866,407.21578 38.3623,407.05172 40.585,407.05172 L40.6,407.052 Z" id="Path"></path>
        </g>
    </g>
</svg>