<?xml version="1.0" encoding="UTF-8"?>
<svg width="537px" height="536px" viewBox="0 0 537 536" version="1.1" xmlns="http://www.w3.org/2000/svg" xmlns:xlink="http://www.w3.org/1999/xlink">
    <title>Shape</title>
    <g id="Page-1" stroke="none" stroke-width="1" fill="none" fill-rule="evenodd">
        <g id="noun-pattern-130184" transform="translate(0.787000, 0.018000)" fill="#FFFFFF" fill-rule="nonzero">
            <path d="M535.903,267.952 C535.903,230.929 520.887,197.417 496.614,173.171 C496.34056,139.249 483.305,105.398 457.419,79.515 C431.509,53.605 397.63,40.57 363.677,40.32 C339.353,15.468 305.474,0 267.954,0 C230.434,0 196.556,15.469 172.239,40.32 C138.278,40.57 104.391,53.605 78.481,79.515 C52.598,105.398 39.559,139.249 39.293,173.171 C15.02,197.417 0,230.937 0,267.952 C0,304.967 15.02,338.479 39.289,362.729 C39.03509,397.342 52.07,432.045 78.484,458.459 C104.922,484.897 139.656,497.932 174.304,497.654 C198.464,521.299 231.488,535.908 267.956,535.908 C304.433,535.908 337.452,521.287 361.612,497.654 C396.257,497.92744 430.991,484.892 457.421,458.459 C483.835,432.045 496.878,397.35 496.62,362.729 C520.886,338.479 535.903,304.967 535.903,267.952 L535.903,267.952 Z M431.423,248.874 C409.958,236.011 385.728,229.585 361.485,229.808 C378.946,212.773 391.657,190.999 397.774,166.578 C399.1685,166.523312 400.5318,166.36706 401.9381,166.36706 C425.0401,166.36706 446.2701,174.16786 463.3401,187.16806 C460.5979,208.70306 451.0511,229.54306 434.5201,246.07406 C433.5201,247.07015 432.4498,247.92956 431.4224,248.87486 L431.423,248.874 Z M434.5285,291.894 C450.5835,307.949 460.0285,328.058 463.0835,348.925 C446.0605,361.8 424.9235,369.534 401.9425,369.534 C400.5363,369.534 399.173,369.38556 397.7784,369.32306 C391.9034,345.89706 379.9774,324.89706 363.5944,308.19006 C387.1374,308.03381 410.5904,301.59626 431.4344,289.10806 C432.4617,290.03775 433.5321,290.89326 434.5282,291.89326 L434.5285,291.894 Z M369.5365,401.934 C369.5365,425.399 361.4974,446.938 348.1385,464.145 C327.1895,461.1255 306.9865,451.668 290.8685,435.555 C289.87241,434.55891 289.013,433.4886 288.0755,432.4612 C300.9195,411.0232 307.3455,386.8402 307.1415,362.6212 C324.0165,379.5162 345.4265,391.7772 369.3255,397.7662 C369.388,399.1646 369.5365,400.5318 369.5365,401.9342 L369.5365,401.934 Z M187.7765,464.141 C174.4095,446.938 166.3785,425.387 166.3785,401.93 C166.3785,400.5238 166.53475,399.1605 166.58944,397.7659 C190.48744,391.7737 211.89844,379.5079 228.77344,362.6209 C228.57422,386.8399 235.00004,411.0159 247.84344,432.4609 C246.89813,433.4882 246.03874,434.5586 245.05044,435.5547 C228.92944,451.6677 208.72644,461.1247 187.77744,464.141 L187.7765,464.141 Z M133.9715,369.53975 C110.9915,369.53975 89.8545,361.8124 72.8305,348.93 C75.8852,328.059 85.3305,307.946 101.3855,291.891 C102.38159,290.89491 103.4558,290.0355 104.4793,289.098 C125.3233,301.594 148.7763,308.028 172.3193,308.176 C155.9363,324.895 144.0073,345.895 138.1353,369.321 C136.7486,369.391313 135.3775,369.53975 133.9712,369.53975 L133.9715,369.53975 Z M101.3855,246.089 C84.8545,229.558 75.3155,208.726 72.5655,187.191 C89.6395,174.191 110.8745,166.382 133.9795,166.382 C135.3857,166.382 136.7529,166.53825 138.1436,166.59294 C144.2608,191.00694 156.9716,212.78094 174.4246,229.81594 C150.1786,229.59719 125.9476,236.01904 104.4796,248.88594 C103.4523,247.93672 102.378,247.08124 101.3858,246.08904 L101.3855,246.089 Z M166.36538,133.979 C166.36538,111.354 173.8577,90.53 186.3695,73.643 C207.8225,76.4321 228.5605,85.955 245.0375,102.428 C246.03359,103.42409 246.893,104.4983 247.8305,105.5218 C235.3535,126.3458 228.9205,149.7598 228.7525,173.2838 C211.8855,156.3968 190.4675,144.1318 166.5685,138.1468 C166.521626,136.7484 166.36538,135.3851 166.36538,133.9788 L166.36538,133.979 Z M349.5255,73.639 C362.0375,90.526 369.5295,111.358 369.5295,133.983 C369.5295,135.3892 369.38106,136.7564 369.31856,138.1471 C345.42356,144.1315 324.01356,156.3971 307.14656,173.2761 C306.97859,149.7561 300.54496,126.3351 288.06856,105.5141 C289.00997,104.4868 289.86546,103.4164 290.86156,102.4203 C307.33456,85.9513 328.07256,76.4243 349.52556,73.639 L349.5255,73.639 Z M309.1305,226.779 C319.3415,203.806 337.7905,185.353 360.7675,175.142 C350.5605,198.111 332.1115,216.568 309.1305,226.779 Z M267.9585,210.763 C258.9312,187.298 258.9233,161.197 267.9585,137.732 C276.9819,161.197 276.9819,187.298 267.9585,210.763 Z M226.7865,226.783 C203.8065,216.572 185.3455,198.119 175.1345,175.138 C198.1145,185.349 216.5755,203.806 226.7865,226.783 Z M209.7435,268.99 C186.2745,278.0173 160.1655,278.0252 136.6925,268.99 C160.1575,259.9627 186.2745,259.9627 209.7435,268.99 Z M226.7945,309.119 C216.5835,332.103 198.1225,350.564 175.1425,360.783 C185.3455,337.795 203.8065,319.334 226.7945,309.119 Z M267.9585,327.217 C276.9819,350.682 276.9819,376.783 267.9585,400.248 C258.9312,376.783 258.9312,350.689 267.9585,327.217 Z M309.1305,309.123 C332.1035,319.334 350.5565,337.787 360.7675,360.768 C337.7985,350.565 319.3375,332.108 309.1305,309.123 Z M326.1855,268.99 C349.6505,259.9627 375.7445,259.9627 399.2085,268.982188 C375.7475,278.017388 349.6495,278.017388 326.1855,268.99 L326.1855,268.99 Z M434.5255,102.42 C447.5295,115.424 456.1775,131.1 460.6585,147.666 C442.9045,138.9785 423.0335,133.971 401.9315,133.971 C401.9315,113.225 397.0838,93.659 388.6585,76.135 C405.4595,80.5686 421.3575,89.26 434.5255,102.42 Z M320.5455,47.193 C301.3385,53.5446 283.2445,64.236 267.9555,79.517 C252.6665,64.228 234.5805,53.552 215.3655,47.193 C230.7205,37.8649 248.6775,32.396 267.9555,32.396 C287.2285,32.396 305.1855,37.8648 320.5455,47.193 Z M101.3855,102.42 C114.5535,89.252 130.4475,80.561 147.2445,76.139 C138.8265,93.666 133.9785,113.229 133.9785,133.975 C112.8845,133.975 93.0055,138.9828 75.2515,147.67 C79.7281,131.108 88.3765,115.432 101.3845,102.42 L101.3855,102.42 Z M32.3895,267.96 C32.3895,249.292 37.5184,231.858 46.3035,216.831 C52.6746,235.882 63.3075,253.823 78.4795,268.991 C63.6595,283.811 53.1865,301.284 46.7645,319.846 C37.6981,304.643 32.3895,286.94 32.3895,267.959 L32.3895,267.96 Z M74.6745,387.97 C92.5695,396.8294 112.6545,401.939 133.9715,401.939 C133.9715,423.611 139.2371,444.013 148.3695,462.127 C131.1585,457.8028 114.8385,449.029 101.3815,435.565 C87.7685,421.948 78.9435,405.405 74.6745,387.971 L74.6745,387.97 Z M267.9545,503.52 C249.5795,503.52 232.3995,498.5669 217.5285,490.036 C235.9265,483.5946 253.2515,473.181 267.9545,458.47 C282.6655,473.181 299.9745,483.595 318.3805,490.036 C303.5095,498.5672 286.3215,503.52 267.9545,503.52 Z M434.5245,435.567 C421.0675,449.024 404.7435,457.797 387.5365,462.129 C396.6771,444.016 401.9345,423.621 401.9345,401.941 C423.2585,401.941 443.3365,396.8316 461.2315,387.972 C456.9659,405.402 448.1375,421.945 434.5245,435.566 L434.5245,435.567 Z M457.4265,268.997 C472.5945,253.829 483.2235,235.884 489.6025,216.829 C498.3955,231.86 503.5165,249.298 503.5165,267.962 C503.5165,286.946 498.2079,304.65 489.1415,319.849 C482.7196,301.29 472.2465,283.826 457.4265,268.997 Z" id="Shape"></path>
        </g>
    </g>
</svg>