<?xml version="1.0" encoding="UTF-8"?>
<svg width="494px" height="442px" viewBox="0 0 494 442" version="1.1" xmlns="http://www.w3.org/2000/svg" xmlns:xlink="http://www.w3.org/1999/xlink">
    <title>Shape</title>
    <g id="Page-1" stroke="none" stroke-width="1" fill="none" fill-rule="evenodd">
        <g id="noun-e-commerce-2804243" transform="translate(0.345348, 0.062660)" fill="#FFFFFF" fill-rule="nonzero">
            <path d="M493.294652,311.88734 L493.294652,26.79734 L493.294652,26.41453 C493.294652,26.30516 493.294652,26.19578 493.239965,26.08641 L493.239965,26.35985 C493.239965,25.97704 493.185277,25.64891 493.075905,25.32075 C493.075905,25.375438 493.130592,25.43013 493.130592,25.5395 C493.18528,25.70356 493.18528,25.86763 493.239972,26.08638 C492.583722,11.75838 481.044972,0.32838 466.606972,0.10938 C465.841352,0.10938 465.075772,2.84217094e-14 464.255372,2.84217094e-14 L39.0053718,2.84217094e-14 C35.0131718,2.84217094e-14 30.9662718,0.054688 26.9743718,0.10938 C17.4040717,0.21876 8.38037175,5.14058 3.56837175,13.56238 C0.94337175,18.10148 0.01367175,23.24208 0.01367175,28.38238 L0.01367175,318.39238 C0.01367175,319.97828 -0.04101525,321.56428 0.06835875,323.15018 C1.05273875,337.20518 12.5913587,348.14218 26.6463588,348.30618 C29.7635588,348.360867 32.9354587,348.360867 36.0525588,348.360867 L230.192559,348.360867 L230.192559,409.063867 L154.231559,409.063867 C145.645659,409.063867 137.442559,416.610767 137.825559,425.469867 C138.208369,434.383967 145.044359,441.875867 154.231559,441.875867 L244.083559,441.875867 C244.575749,441.875867 245.067929,441.821179 245.560159,441.875867 L246.708559,441.875867 C247.255429,441.821179 247.802359,441.875867 248.349159,441.875867 L339.130159,441.875867 C347.716059,441.875867 355.919159,434.328967 355.536159,425.469867 C355.153349,416.555767 348.317359,409.063867 339.130159,409.063867 L263.060159,409.063867 L263.060159,348.360867 L462.670159,348.360867 C463.927959,348.360867 465.185759,348.30618 466.388959,348.30618 C476.232759,348.1968 485.747959,342.83738 490.232959,333.92318 C493.842359,326.86848 493.295459,319.48518 493.295459,311.88418 L493.294652,311.88734 Z M228.994853,249.92634 L228.994853,250.47322 L228.994853,250.80134 C228.994853,251.12946 228.939964,251.45759 228.885272,251.78572 C228.885272,251.8951 228.830585,252.00447 228.830585,252.11384 C228.830585,252.22321 228.775898,252.33259 228.775898,252.44196 L228.775898,252.60602 L228.775898,252.77008 L228.775898,252.93414 C228.775898,252.988827 228.775898,253.04351 228.72121,253.0982 C228.72121,253.20758 228.666522,253.31695 228.666522,253.37164 C228.393082,254.73884 228.010272,256.10604 227.463422,257.41854 C227.408734,257.5826 227.299362,257.80135 227.244672,257.96542 C227.135292,258.18417 227.080612,258.40292 226.971232,258.62167 C226.916544,258.73104 226.861852,258.84042 226.807172,258.94979 C226.697792,259.11385 226.643112,259.27792 226.533732,259.44198 C226.479044,259.55136 226.424352,259.71542 226.314982,259.82479 C226.260294,259.98885 226.150922,260.09823 226.096232,260.26229 C225.932172,260.53573 225.768112,260.80917 225.604042,261.0826 C225.330602,261.5201 225.057172,261.90291 224.783732,262.3404 C224.510292,262.72321 224.182172,263.16071 223.854042,263.5435 C223.471232,263.981 223.033732,264.47319 222.650942,264.856 C222.486882,265.02006 222.268132,265.23881 222.049382,265.40288 L221.994695,265.457567 C221.830635,265.621627 221.611885,265.785687 221.447815,265.949757 C221.229065,266.113817 221.065005,266.277887 220.846255,266.441947 C220.627505,266.606007 220.408755,266.770067 220.190005,266.934137 C220.025945,267.043507 219.807195,267.207577 219.643125,267.316947 C219.424375,267.481007 219.205625,267.590387 219.041565,267.699757 C218.877505,267.809137 218.713445,267.918507 218.494695,268.027887 C218.385315,268.082574 218.221255,268.191947 218.111885,268.246637 C217.783765,268.465387 217.400945,268.629447 217.072785,268.793507 C216.854035,268.902887 216.689975,268.957567 216.471225,269.066947 C216.197785,269.176327 215.979035,269.285697 215.705605,269.395067 C215.596225,269.449754 215.432165,269.504447 215.322795,269.559127 C215.104045,269.668497 214.885295,269.723187 214.666545,269.832567 C214.393105,269.941947 214.119675,270.051317 213.846235,270.106007 C213.682175,270.160695 213.518115,270.215387 213.354045,270.270067 C213.025925,270.379447 212.643105,270.488817 212.314945,270.543507 C212.150885,270.598195 212.041505,270.598195 211.877445,270.652887 C211.713385,270.707574 211.494635,270.762257 211.330565,270.762257 C211.275878,270.762257 211.166505,270.70757 211.111815,270.70757 L210.947755,270.70757 C210.783695,270.762257 210.674315,270.81695 210.510255,270.87163 C210.455568,270.87163 210.400885,270.87163 210.346195,270.926317 C210.182135,270.981004 210.072755,271.035697 209.908695,271.035697 C206.518095,271.473197 203.072795,271.199757 199.791695,269.996597 C198.041695,269.340347 196.401095,268.519997 194.924495,267.535697 C194.705745,267.371637 194.486995,267.262257 194.268245,267.098197 C194.049495,266.934137 193.776055,266.770077 193.557305,266.551317 C193.229175,266.332567 192.955745,266.059127 192.627615,265.785697 C192.354175,265.512257 192.080735,265.293507 191.752615,265.020077 C191.424495,264.691957 191.096365,264.418517 190.822925,264.090387 C190.713555,263.981007 190.604175,263.871637 190.549485,263.762257 C190.330735,263.543507 190.166675,263.324757 190.002605,263.106007 C189.947917,263.05132 189.947917,263.05132 189.947917,262.996637 L189.838547,262.887257 L189.838547,262.83257 L189.838547,262.777883 C189.838547,262.723195 189.838547,262.668503 189.783859,262.613823 C189.783859,262.613823 189.729171,262.559136 189.729171,262.504443 C189.729171,262.44975 189.674484,262.449755 189.619801,262.395063 L189.510421,262.285683 C189.455734,262.230995 189.455734,262.230995 189.401051,262.176303 C189.346363,262.121616 189.346363,262.121616 189.291671,262.066923 C189.236984,262.066923 189.236984,262.012235 189.236984,261.957543 C189.072924,261.684103 188.854174,261.465353 188.690104,261.191923 C188.580724,261.027863 188.471354,260.863803 188.361984,260.699733 C188.197924,260.480983 188.088544,260.262233 187.924484,259.988793 C187.760424,259.715353 187.651044,259.496603 187.541674,259.277853 C187.486987,259.223165 187.432304,259.113793 187.432304,259.059103 C187.213554,258.676293 186.994804,258.238793 186.830744,257.856003 C186.611994,257.363813 186.393244,256.871633 186.229184,256.324803 C186.065124,255.832613 185.846374,255.285703 185.736994,254.738903 C185.299494,253.153003 185.026054,251.512303 184.916684,249.817003 L184.916684,249.762315 L184.916684,249.652945 L184.916684,249.488885 L184.916684,249.379505 L184.916684,249.270125 L184.916684,249.160745 L184.916684,249.051365 L184.916684,248.996678 L184.916684,248.887298 C184.916684,248.668548 184.971372,248.449798 185.026064,248.231048 C185.080751,247.465428 185.135434,246.699848 185.244814,245.934148 C185.244814,245.87946 185.299501,245.770088 185.299501,245.715398 C185.354188,245.496648 185.354188,245.332588 185.408881,245.113838 C185.463569,244.840398 185.518261,244.566958 185.572941,244.238838 C185.627629,244.020088 185.682321,243.801338 185.737001,243.582588 C185.791688,243.254468 185.901061,242.981028 186.010441,242.652898 C186.065129,242.488838 186.119821,242.270088 186.174501,242.106018 C186.283881,241.832578 186.338561,241.613828 186.447941,241.395078 C186.502629,241.176328 186.612001,240.957578 186.721381,240.793518 C186.830761,240.520078 186.940131,240.191958 187.104191,239.918518 C187.213571,239.754458 187.268251,239.535708 187.377631,239.371648 C187.651071,238.824768 187.924511,238.332548 188.252631,237.840448 C188.307319,237.676388 188.416684,237.567008 188.471381,237.402948 C188.635441,237.129508 188.854191,236.801388 189.072941,236.527948 C189.182321,236.363888 189.291691,236.254508 189.346381,236.090448 C189.729191,235.543568 190.166691,234.996648 190.658881,234.449848 C190.768261,234.285788 190.932321,234.176408 191.041691,234.012348 C191.205751,233.793598 191.424501,233.629538 191.588571,233.410788 C191.916684,233.082668 192.244821,232.754538 192.627671,232.426408 C193.174551,231.934218 193.776071,231.442028 194.377671,231.004508 C194.596421,230.840448 194.760481,230.731068 194.979231,230.567008 C195.197981,230.402948 195.362041,230.293568 195.580791,230.184198 C195.799541,230.074818 196.018291,229.910758 196.182351,229.801388 L196.237038,229.801388 C196.346418,229.746701 196.455788,229.692008 196.510478,229.637328 C196.838608,229.473268 197.221418,229.254518 197.549578,229.090458 C197.768328,228.981078 198.041768,228.871708 198.260518,228.762328 C198.533958,228.652958 198.752708,228.543578 199.026148,228.434208 C199.573018,228.215458 200.174548,227.996708 200.776148,227.832648 C201.049588,227.723268 201.377708,227.668588 201.705838,227.613898 C201.924588,227.559211 202.143338,227.504518 202.416778,227.449838 C202.471466,227.449838 202.580838,227.395151 202.635528,227.395151 C202.799588,227.340464 202.963658,227.285771 203.182408,227.285771 L203.237095,227.285771 L203.346475,227.285771 L203.401163,227.285771 C203.510533,227.285771 203.619913,227.285771 203.729283,227.231083 L203.838663,227.231083 L203.948033,227.231083 L204.385533,227.231083 L204.494913,227.231083 L204.932413,227.231083 L205.260533,227.231083 C205.807413,227.231083 206.299633,227.067023 206.846433,227.067023 C207.830813,227.067023 208.760533,227.012335 209.690233,227.121711 C209.908983,227.176398 210.182423,227.231081 210.401173,227.231081 L210.565233,227.231081 L210.674613,227.231081 C210.783993,227.285769 210.948053,227.285769 211.057423,227.340461 C211.658983,227.449831 212.205823,227.613901 212.807423,227.777961 C212.86211,227.777961 212.916793,227.777961 212.971483,227.832648 C213.080863,227.887335 213.135543,227.887335 213.244923,227.942028 C213.354293,227.996716 213.518363,228.051408 213.627733,228.051408 L213.682421,228.051408 C213.737108,228.051408 213.737108,228.051408 213.791791,228.106095 L213.846479,228.106095 L213.901167,228.106095 C214.010537,228.160783 214.174607,228.215475 214.283977,228.270155 L214.338665,228.324842 L214.557415,228.324842 L214.612102,228.324842 C214.721482,228.324842 214.776162,228.37953 214.885542,228.434222 C214.94023,228.488909 215.049602,228.488909 215.104292,228.543592 C215.15898,228.543592 215.213672,228.59828 215.213672,228.59828 L215.268359,228.59828 L215.323046,228.59828 C215.432426,228.652968 215.541796,228.70766 215.651176,228.76234 C215.760546,228.817028 215.869926,228.87172 215.979296,228.9264 C216.033984,228.9264 216.033984,228.9264 216.088676,228.981087 C216.143363,228.981087 216.143363,228.981087 216.198046,229.035775 C216.252734,229.090463 216.252734,229.035775 216.307426,229.090463 C216.362113,229.090463 216.416796,229.14515 216.471486,229.14515 C216.526176,229.14515 216.635546,229.199837 216.690236,229.25453 C216.744926,229.309223 216.854296,229.309218 216.908986,229.36391 C216.963674,229.36391 217.073046,229.418597 217.073046,229.418597 L217.127734,229.418597 L217.182422,229.418597 L217.237109,229.418597 L217.237109,229.36391 L217.291796,229.36391 C217.401176,229.36391 217.455856,229.52797 217.565236,229.58266 L217.565236,229.637347 C217.565236,229.637347 217.565236,229.801407 217.619924,229.801407 L217.674611,229.965467 C217.729298,229.965467 217.783991,229.910779 217.783991,229.910779 C217.893371,229.965467 218.002741,229.965467 218.112111,230.020159 C218.166798,230.020159 218.221491,230.020159 218.276171,230.074846 C218.330858,230.129534 218.385541,230.129534 218.440231,230.129534 C219.971431,231.004534 221.338631,232.098334 222.596431,233.356134 C222.705811,233.465514 222.869871,233.629574 222.979241,233.738944 C223.143301,233.903004 223.307371,234.067064 223.416741,234.231134 C223.744871,234.613944 224.072991,234.942074 224.346431,235.324934 C224.947991,236.090564 225.494831,236.910834 225.987031,237.785834 C226.479231,238.660834 226.916721,239.535834 227.299531,240.410834 C227.463591,240.848334 227.627651,241.285834 227.791721,241.723334 C227.901101,241.942084 227.955781,242.160834 228.010471,242.434274 L228.010471,242.543644 L228.010471,242.598332 C228.065159,242.762392 228.119851,242.981142 228.174531,243.145212 C228.229218,243.363962 228.283911,243.582712 228.338591,243.801462 C228.393278,244.020212 228.447961,244.238962 228.502651,244.512402 C228.557339,244.731152 228.612031,245.004592 228.612031,245.223342 C228.612031,245.27803 228.612031,245.332722 228.666718,245.387402 C228.721406,245.551462 228.721406,245.770212 228.721406,245.934282 L228.721406,246.098342 C228.776094,246.426462 228.830786,246.809282 228.830786,247.137442 L228.830786,247.19213 C228.830786,247.46557 228.885473,247.68432 228.885473,247.90307 C228.994853,248.72338 228.994853,249.32497 228.994853,249.92647 L228.994853,249.92634 Z M319.502652,252.93414 C319.447964,253.26226 319.393272,253.5357 319.338592,253.86383 C319.229212,254.35602 319.065152,254.84821 318.901092,255.39503 C318.846404,255.50441 318.846404,255.61378 318.791712,255.72315 L318.791712,255.777838 C318.627652,256.215338 318.463592,256.707528 318.299522,257.145038 L318.299522,257.199725 C318.299522,257.254413 318.299522,257.254413 318.244835,257.309105 C318.135455,257.582545 318.080775,257.910665 317.971395,258.184105 L317.862015,258.457545 C317.752635,258.676295 317.697955,258.895045 317.533895,259.113795 C317.369835,259.387235 317.205775,259.605985 316.987015,259.879415 C316.713575,260.371605 316.385455,260.863795 316.057325,261.410615 C315.947945,261.574675 315.838575,261.738735 315.729195,261.902805 C315.565135,262.176245 315.346385,262.449675 315.182325,262.723115 C314.963575,262.996555 314.799515,263.269995 314.580765,263.488735 C314.471385,263.598115 314.362015,263.707485 314.307325,263.816855 C314.033885,264.144975 313.760445,264.473105 313.432325,264.801235 C313.268265,264.965295 313.104195,265.129355 312.940135,265.293425 C312.776075,265.457485 312.612015,265.621555 312.393255,265.785615 C312.229195,265.949675 312.065135,266.059055 311.901065,266.223115 C311.737005,266.387175 311.518255,266.551235 311.354185,266.660615 C311.244815,266.769995 311.080745,266.879365 310.971375,266.934055 C308.127575,269.012155 304.791675,270.434055 301.346375,271.035655 C301.127625,271.090343 300.963565,271.254785 300.744815,271.254785 C297.354215,271.254785 293.854215,271.309093 290.627815,270.106005 C290.409065,270.051318 290.245005,269.941945 290.026255,269.887255 C289.643445,269.723195 289.260625,269.559135 288.877855,269.395065 C288.713795,269.340378 288.495045,269.231005 288.330975,269.121625 C288.166915,269.012245 287.948165,268.957565 287.784095,268.848185 C287.620025,268.738805 287.455975,268.684125 287.291905,268.574745 C287.127845,268.465375 286.909095,268.355995 286.745035,268.246625 C286.580975,268.137245 286.416905,268.027875 286.198155,267.918495 C286.034095,267.809125 285.924715,267.754435 285.760655,267.645055 L285.705968,267.590368 C285.377848,267.371618 285.049718,267.152868 284.721588,266.879428 C284.612208,266.770048 284.448148,266.715368 284.338778,266.605988 C283.682528,266.059118 283.026278,265.512188 282.424678,264.910688 C282.151238,264.637248 281.932488,264.363808 281.659058,264.145068 C281.549678,263.981008 281.385618,263.871628 281.276248,263.707568 C281.166868,263.543508 281.002808,263.434128 280.893438,263.270068 C280.784068,263.106008 280.674688,262.996628 280.510628,262.832568 C280.401258,262.723188 280.346568,262.559128 280.237188,262.449758 L280.182501,262.395071 C279.963751,262.121631 279.745001,261.793511 279.526251,261.465381 C279.416871,261.301321 279.307501,261.137251 279.198121,260.973191 C279.088751,260.809131 278.979371,260.645071 278.924681,260.481001 C278.869994,260.371631 278.760621,260.262251 278.705931,260.152881 C278.651244,260.098193 278.651244,260.043501 278.596551,259.988821 C278.541858,259.934141 278.487171,259.824761 278.432491,259.715381 C278.377803,259.660693 278.377803,259.606001 278.323111,259.496631 C278.159051,259.168501 277.994991,258.840381 277.830921,258.512251 C277.776234,258.348191 277.666861,258.129441 277.557481,257.965381 C277.393421,257.582571 277.229351,257.254441 277.119981,256.871581 C276.955921,256.488771 276.846541,256.051271 276.682481,255.668481 C276.080921,253.863781 275.698101,251.949681 275.588681,249.926281 L275.588681,249.762221 L275.588681,249.488781 L275.588681,249.215341 C275.588681,249.160653 275.643368,249.105961 275.643368,249.105961 L275.643368,248.996591 C275.643368,248.777841 275.752748,248.559091 275.752748,248.395031 C276.299628,238.496631 283.354348,229.528031 293.361748,227.668031 C293.635188,227.613344 293.908628,227.558661 294.182058,227.503971 C294.455498,227.449283 294.728928,227.449283 295.002368,227.394591 C296.861768,227.175841 298.721168,227.175841 300.525768,227.394591 C301.455458,227.503971 302.330468,227.777401 303.205468,227.996151 C303.314848,228.050838 303.478908,228.050838 303.588278,228.105521 C303.971088,228.214901 304.408588,228.050834 304.791378,228.597711 L305.447628,228.597711 L305.392941,228.597711 L305.447628,228.597711 C305.721068,228.597711 306.049188,228.761771 306.322628,228.925831 C306.377316,228.980518 306.486688,229.035211 306.541378,229.144581 C307.088258,229.363331 307.580478,229.582081 308.072578,229.855521 C308.291328,229.964901 308.510078,230.074271 308.674138,230.183651 C308.728825,230.183651 308.783518,230.238338 308.838198,230.293021 C308.947568,230.347709 309.111638,230.457081 309.221008,230.511771 C309.275696,230.511771 309.330388,230.566459 309.330388,230.566459 L309.385075,230.566459 L309.439763,230.566459 C309.549143,230.621147 309.658513,230.675839 309.767883,230.730529 C309.767883,230.730529 309.82257,230.730529 309.82257,230.785207 C309.877258,230.785207 309.93195,230.839895 309.93195,230.839895 C309.986637,230.839895 309.986637,230.894582 310.04132,230.894582 C310.04132,230.894582 310.096008,230.894582 310.096008,230.949269 L310.150696,231.003957 C310.260066,231.058645 310.314756,231.113337 310.369446,231.168017 L310.424133,231.168017 L310.47882,231.168017 C310.533508,231.168017 310.533508,231.222705 310.5882,231.222705 C310.642887,231.222705 310.642887,231.277393 310.69757,231.277393 L310.752258,231.277393 C310.752258,231.277393 310.806946,231.277393 310.806946,231.33208 C310.916316,231.386767 311.025696,231.49614 311.080386,231.55083 L311.080386,231.605517 L311.135073,231.714897 L311.189761,231.660209 C311.244449,231.660209 311.244449,231.605521 311.299141,231.605521 C311.408521,231.660209 311.517891,231.714901 311.627261,231.714901 L311.627261,231.933651 L311.627261,232.043021 L311.681949,231.933651 C311.681949,231.988338 311.627261,232.043021 311.681949,232.043021 C311.681949,232.043021 311.627261,232.043021 311.627261,232.097709 C311.627261,232.097709 311.736641,232.152397 311.791321,232.152397 L311.900701,232.207084 C311.955388,232.261771 312.064761,232.316464 312.119451,232.371144 C312.174138,232.425831 312.228821,232.425831 312.283511,232.480514 C312.338199,232.480514 312.338199,232.535202 312.392891,232.535202 L312.447578,232.535202 L312.502266,232.58989 C312.885076,232.91801 313.213206,233.24614 313.596066,233.62899 L314.197626,234.23055 C314.689816,234.77743 315.127316,235.32435 315.564826,235.92585 C315.619514,235.980537 315.674206,236.08991 315.728886,236.1446 C315.783574,236.199287 315.838266,236.30866 315.892946,236.36335 C316.111696,236.63679 316.275756,236.91023 316.439826,237.23835 C316.439826,237.23835 316.494514,237.293037 316.494514,237.34773 C316.603884,237.51179 316.658574,237.62117 316.767954,237.78523 L316.767954,237.839918 C316.822641,237.894605 316.877334,238.003978 316.877334,238.058668 C316.986714,238.222728 317.096084,238.441478 317.205454,238.605538 C317.260141,238.660226 317.260141,238.769598 317.314834,238.824288 C317.369522,238.933668 317.424214,239.043038 317.478894,239.152418 C317.533582,239.261788 317.588274,239.371168 317.588274,239.425858 C317.697644,239.589918 317.752334,239.753978 317.807024,239.918048 C318.135144,240.628988 318.408584,241.339948 318.627334,242.105548 L318.627334,242.160236 C318.682022,242.269616 318.682022,242.378986 318.736714,242.488356 L318.736714,242.543043 L318.736714,242.597731 C318.791401,242.707111 318.791401,242.761791 318.791401,242.871171 L318.791401,242.980541 L318.791401,243.089921 C318.791401,243.144608 318.846089,243.199291 318.846089,243.308671 C318.900777,243.472731 318.955469,243.636791 318.955469,243.855541 C319.010156,244.019601 319.010156,244.183671 319.064849,244.293041 C319.119537,244.457101 319.119537,244.566481 319.174229,244.730541 C319.174229,244.894601 319.228916,245.058671 319.283609,245.222731 C319.283609,245.386791 319.338297,245.496171 319.338297,245.660231 L319.338297,245.878981 L319.338297,245.933669 C319.392984,246.207109 319.392984,246.480539 319.392984,246.699289 C319.447671,247.027419 319.447671,247.355539 319.447671,247.683669 C319.885171,249.652469 319.775801,251.293069 319.502359,252.933669 L319.502652,252.93414 Z M348.268652,122.66414 C348.268652,122.77352 348.213965,122.93758 348.213965,123.04695 C348.159277,123.32039 348.104585,123.53914 347.995215,123.81257 C347.995215,123.867258 347.831155,123.92195 347.831155,124.03132 C347.831155,124.46882 347.667095,124.90632 347.448345,125.34382 C346.409245,128.02352 345.534245,130.64852 344.495245,133.27352 C335.854645,155.53152 327.268245,177.78952 318.683245,200.04652 C318.136365,201.46842 317.261345,202.61682 316.058245,203.32772 C315.948865,203.382407 315.894185,203.4371 315.784805,203.4371 C315.620745,203.54648 315.401995,203.60116 315.183245,203.71054 C314.636365,203.92929 314.034845,203.98398 313.378545,203.98398 L189.178545,203.98398 C183.655145,205.18708 178.295545,201.24958 176.600545,196.10898 C175.123945,191.67928 173.702145,187.24958 172.225545,182.81998 C165.881745,163.62498 159.592545,144.53898 153.248545,125.34298 C150.186045,115.99138 147.068845,106.63998 144.006345,97.34298 L111.904345,97.34298 C105.779345,97.34298 101.240345,92.31178 100.966345,86.40498 C100.692345,80.49818 106.161645,75.46698 111.904345,75.46698 L151.935345,75.46698 C156.911945,75.46698 160.958745,78.80288 162.490345,83.39668 C163.966945,87.82638 165.334145,92.20138 166.810645,96.63068 C167.959045,100.02128 168.998145,103.41188 170.091845,106.80268 C171.185645,110.19328 172.443445,113.58388 173.591845,116.97468 L341.751845,116.97468 C342.572155,116.81062 343.392445,116.81062 344.322145,117.029368 C344.814335,117.138748 345.251835,117.357488 345.689345,117.630928 C346.290905,117.959058 346.728445,118.396558 347.111245,118.943428 L347.111245,118.998116 C347.986245,120.091916 348.423745,121.404316 348.259645,122.662216 L348.268652,122.66414 Z" id="Shape"></path>
        </g>
    </g>
</svg>