<?xml version="1.0" encoding="UTF-8"?>
<svg width="347px" height="554px" viewBox="0 0 347 554" version="1.1" xmlns="http://www.w3.org/2000/svg" xmlns:xlink="http://www.w3.org/1999/xlink">
    <title>noun-figma-1264470</title>
    <g id="Page-1" stroke="none" stroke-width="1" fill="none" fill-rule="evenodd">
        <g id="noun-figma-1264470" transform="translate(0.867000, 0.977000)" fill="#FFFFFF" fill-rule="nonzero">
            <path d="M86.173,167.953 C39.982,167.953 2.189,130.16 2.189,83.969 C2.189,37.789 39.982,-1.42108547e-14 86.173,-1.42108547e-14 L253.463,-1.42108547e-14 C299.643,-1.42108547e-14 337.436,37.789 337.436,83.969 C337.436,130.16 299.643,167.953 253.463,167.953 L86.173,167.953 Z" id="Path"></path>
            <path d="M83.953,360.203 L169.453,360.203 L169.453,192.203 L83.953,192.203 C60.902,192.203 39.894,201.6444 24.668,216.871 C9.445,232.098 2.84217094e-14,253.121 2.84217094e-14,276.246 C2.84217094e-14,322.41 37.777,360.203 83.953,360.203" id="Path"></path>
            <path d="M261.603,193.923 C215.232,193.923 177.619,231.517 177.619,277.907 C177.619,324.282 215.232,361.876 261.603,361.876 C307.978,361.876 345.587,324.282 345.587,277.907 C345.587,231.516 307.978,193.923 261.603,193.923" id="Path"></path>
            <path d="M169.313,384.153 L82.317,384.153 L82.317,384.32097 C37.426,386.00067 1.524,422.82497 1.524,468.13697 C1.524,514.51197 39.122,552.10997 85.493,552.10997 C130.431,552.10997 167.028,516.78197 169.266,472.40697 L169.312876,472.40697 L169.312876,471.45385 C169.355844,470.34835 169.476936,469.25855 169.476936,468.13745 C169.476936,467.02025 169.355846,465.93045 169.312876,464.80935 L169.313,384.153 Z" id="Path"></path>
        </g>
    </g>
</svg>