<?xml version="1.0" encoding="UTF-8"?>
<svg width="560px" height="561px" viewBox="0 0 560 561" version="1.1" xmlns="http://www.w3.org/2000/svg" xmlns:xlink="http://www.w3.org/1999/xlink">
    <title>Shape</title>
    <g id="Page-1" stroke="none" stroke-width="1" fill="none" fill-rule="evenodd">
        <g id="noun-javascript-980559" transform="translate(-0.002000, 0.000000)" fill="#FFFFFF" fill-rule="nonzero">
            <path d="M429.332,345.33 C475.656,345.33 513.332,383.018 513.332,429.33 C513.332,475.642 475.656,513.33 429.332,513.33 C383.012,513.33 345.3319,475.642 345.3319,429.33 C345.3319,424.1777 349.5039,419.998 354.6679,419.998 C359.8281,419.998 363.9999,424.1777 363.9999,429.33 C363.9999,465.357 393.3159,494.666 429.3319,494.666 C465.3519,494.666 494.6679,465.357 494.6679,429.33 C494.6679,393.307 465.3519,363.998 429.3319,363.998 C383.0119,363.998 345.3319,326.31 345.3319,279.998 C345.3319,233.686 383.0119,195.998 429.3319,195.998 C475.6559,195.998 513.332,233.686 513.332,279.998 C513.332,285.1503 509.16,289.33 503.9999,289.33 C498.8398,289.33 494.6679,285.1503 494.6679,279.998 C494.6679,243.971 465.3519,214.666 429.3319,214.666 C393.3159,214.666 363.9999,243.971 363.9999,279.998 C363.9999,316.025 393.3159,345.33 429.3319,345.33 L429.332,345.33 Z M317.332,429.33 C317.332,475.642 279.656,513.33 233.332,513.33 C187.012,513.33 149.332,475.642 149.332,429.33 C149.332,424.1777 153.5039,419.998 158.6679,419.998 C163.8281,419.998 167.9999,424.1777 167.9999,429.33 C167.9999,465.357 197.3159,494.666 233.3319,494.666 C269.3519,494.666 298.6679,465.357 298.6679,429.33 L298.6679,205.33 C298.6679,200.1777 302.8398,195.998 307.9999,195.998 C313.16,195.998 317.332,200.1777 317.332,205.33 L317.332,429.33 Z M550.672,0 L9.332,0 C4.1718,0 0,4.1797 0,9.332 L0,550.672 C0,555.8243 4.1719,560.004 9.332,560.004 L550.672,560.004 C555.8322,560.004 560.004,555.8243 560.004,550.672 L560.004,9.332 C560.004,4.1797 555.8321,0 550.672,0 Z" id="Shape"></path>
        </g>
    </g>
</svg>