<?xml version="1.0" encoding="UTF-8"?>
<svg width="348px" height="346px" viewBox="0 0 348 346" version="1.1" xmlns="http://www.w3.org/2000/svg" xmlns:xlink="http://www.w3.org/1999/xlink">
    <title>noun-to-do-list-5520276</title>
    <g id="Page-1" stroke="none" stroke-width="1" fill="none" fill-rule="evenodd">
        <g id="noun-to-do-list-5520276" transform="translate(0.913200, 0.914600)" fill="#FFFFFF" fill-rule="nonzero">
            <polygon id="Path" points="172.7668 238.1954 268.7898 128.4454 317.0828 170.6954 221.0598 280.4454"></polygon>
            <path d="M154.6568,307.6054 C157.1568,309.7812 160.6841,310.3671 163.7349,309.121 L207.0199,291.414 L163.7579,253.562 L151.9569,298.808 C151.10924,302.015 152.16002,305.4213 154.6561,307.6049 L154.6568,307.6054 Z" id="Path"></path>
            <path d="M335.2068,101.2754 C328.7576,95.6348 320.5658,92.8106 311.9408,93.4082 C303.3978,93.9707 295.5698,97.8418 289.9288,104.2952 L280.3311,115.2642 L328.6161,157.5182 L338.2138,146.5452 C343.8544,140.096 346.6552,131.8382 346.0849,123.2872 C345.51459,114.7364 341.6552,106.9162 335.2059,101.2752 L335.2068,101.2754 Z" id="Path"></path>
            <polygon id="Path" points="70.0068 339.0454 70.0068 274.1704 5.1318 274.1704"></polygon>
            <path d="M218.7168,305.5354 C218.7168,305.5354 170.4588,325.2734 170.3648,325.3124 C161.3492,328.9999 150.1928,326.9491 143.1458,320.789 C135.5794,314.1757 132.4818,304.051 135.0208,294.355 L148.1928,243.902 C149.2084,239.9958 151.1537,236.32 153.81,233.273 L179.279,204.164 L125.416,204.164 C120.584,204.164 116.666,200.246 116.666,195.414 C116.666,190.582 120.584,186.664 125.416,186.664 L194.592,186.664 L250.834,122.391 L250.834,32.082 C250.834,14.387 236.443,2.84217094e-14 218.752,2.84217094e-14 L32.082,2.84217094e-14 C14.387,2.84217094e-14 0,14.391 0,32.082 L0,256.662 L78.75,256.662 C83.582,256.662 87.5,260.58 87.5,265.412 L87.5,344.162 L218.75,344.162 C236.445,344.162 250.834,329.771 250.834,312.08 L250.834,272.982 L228.469,298.544 C225.801,301.587 222.4299,303.9971 218.7151,305.5323 L218.7168,305.5354 Z M125.4158,46.6654 L195.4158,46.6654 C200.2478,46.6654 204.1658,50.5834 204.1658,55.4154 C204.1658,60.2474 200.2478,64.1654 195.4158,64.1654 L125.4158,64.1654 C120.5838,64.1654 116.6658,60.2474 116.6658,55.4154 C116.6658,50.5873 120.5877,46.6654 125.4158,46.6654 Z M125.4158,116.6654 L195.4158,116.6654 C200.2478,116.6654 204.1658,120.5834 204.1658,125.4154 C204.1658,130.2474 200.2478,134.1654 195.4158,134.1654 L125.4158,134.1654 C120.5838,134.1654 116.6658,130.2474 116.6658,125.4154 C116.6658,120.5873 120.5877,116.6654 125.4158,116.6654 Z M96.6038,189.9354 L73.2718,213.2674 C69.8929,216.6463 64.2757,216.6463 60.9008,213.2674 L49.2328,201.5994 C45.8148,198.1814 45.8148,192.6424 49.2328,189.2244 C52.6508,185.8064 58.1898,185.8064 61.6078,189.2244 L67.0844,194.7088 L84.2324,177.5608 C87.6504,174.1428 93.1894,174.1428 96.6074,177.5608 C100.0215,180.9827 100.0215,186.5178 96.603493,189.9358 L96.6038,189.9354 Z M96.6038,119.9354 C96.6038,119.9354 73.2798,143.2594 73.2718,143.2674 C69.8929,146.6463 64.2796,146.6463 60.8968,143.2674 L49.2288,131.5994 C45.8108,128.1814 45.8108,122.6424 49.2288,119.2244 C52.6468,115.8064 58.1858,115.8064 61.6038,119.2244 L67.0843,124.7088 L84.2323,107.5608 C87.6503,104.1428 93.1893,104.1428 96.6073,107.5608 C100.0214,110.9827 100.0214,116.5178 96.603393,119.9358 L96.6038,119.9354 Z M96.6038,49.9354 C96.6038,49.9354 73.3378,73.2014 73.2718,73.2674 C69.9202,76.619 64.2327,76.6033 60.8968,73.2674 L49.2288,61.5994 C45.8108,58.1814 45.8108,52.6424 49.2288,49.2244 C52.6468,45.8064 58.1858,45.8064 61.6038,49.2244 L67.0843,54.7088 L84.2323,37.5608 C87.6503,34.1428 93.1893,34.1428 96.6073,37.5608 C100.0214,40.9827 100.0214,46.5178 96.603393,49.9358 L96.6038,49.9354 Z" id="Shape"></path>
        </g>
    </g>
</svg>