<?xml version="1.0" encoding="UTF-8"?>
<svg width="344px" height="510px" viewBox="0 0 344 510" version="1.1" xmlns="http://www.w3.org/2000/svg" xmlns:xlink="http://www.w3.org/1999/xlink">
    <title>noun-telecom-3242288</title>
    <g id="Page-1" stroke="none" stroke-width="1" fill="none" fill-rule="evenodd">
        <g id="noun-telecom-3242288" transform="translate(0.115998, 0.676104)" fill="#FFFFFF" fill-rule="nonzero">
            <path d="M210.754002,139.823896 C215.871202,112.358896 192.356002,88.7538963 164.887002,93.4178963 C148.192002,96.2030963 134.907002,110.112896 132.664002,126.808896 C130.351502,144.687896 139.582002,160.167896 153.871002,167.429896 C141.273002,270.449896 83.8750024,412.339896 14.3910024,508.659896 L35.1920024,508.659896 C44.4381024,495.276896 53.4300024,481.093896 62.1330024,466.374896 L163.413002,428.464896 L163.413002,508.659896 L180.335002,508.659896 L180.335002,428.464896 L281.605002,466.374896 C290.308102,481.089896 299.300002,495.276896 308.543002,508.659896 L329.344002,508.659896 C259.891002,412.378896 202.504002,270.535896 189.884002,167.515896 C200.493002,162.039296 208.529002,151.886896 210.743002,139.824896 L210.754002,139.823896 Z M141.348002,292.123896 L162.856002,306.697896 L121.735002,345.080896 C128.887302,327.404896 135.481002,309.685896 141.348002,292.123896 Z M70.9730024,451.023896 C83.4810024,428.781896 95.2820024,405.488896 106.086002,381.707896 L159.648002,417.832896 L70.9730024,451.023896 Z M163.418062,406.765896 L110.703002,371.214896 C110.800659,370.996146 110.894412,370.773486 110.992062,370.554736 L163.418062,321.613736 L163.418062,406.765896 Z M163.418002,293.445896 L144.969002,280.949896 C152.515902,257.285896 158.727002,234.101896 163.418002,211.929896 L163.418002,293.445896 Z M272.778002,451.025896 L184.110002,417.834896 L237.669002,381.705896 C248.474002,405.490896 260.271002,428.783896 272.778002,451.025896 L272.778002,451.025896 Z M233.051162,371.213896 L180.340002,406.768896 L180.340002,321.620896 L232.766002,370.569896 C232.863658,370.780836 232.957412,370.999586 233.051162,371.214426 L233.051162,371.213896 Z M222.024002,345.088896 L180.903002,306.701896 L202.407002,292.123896 C208.278102,309.689896 214.872002,327.412896 222.024002,345.088896 L222.024002,345.088896 Z M180.344002,293.447896 L180.344002,211.935896 C185.035402,234.103896 191.246002,257.287896 198.789002,280.951896 L180.344002,293.447896 Z" id="Shape"></path>
            <path d="M214.344002,76.0038963 C227.360002,86.0588963 237.500002,99.5198963 240.555002,115.675896 C246.480802,146.550896 236.875302,170.964896 213.809002,189.097896 C204.652802,196.367396 202.860002,206.781896 209.141002,214.859896 C215.512102,223.117696 226.465002,223.836496 235.707002,216.656796 C256.352002,200.410796 269.187002,180.215796 274.750002,154.363796 C278.250002,138.117796 277.710902,121.062796 273.671902,104.816796 C273.312532,103.379296 272.953152,101.945696 272.503902,100.418396 C265.949202,78.6063963 253.026902,60.8363963 234.714902,47.1913963 C223.585902,38.9335963 209.132902,43.5116963 206.081902,56.1679963 C204.023302,64.6015963 207.703002,70.8869963 214.343602,76.0039963 L214.344002,76.0038963 Z" id="Path"></path>
            <path d="M304.194002,95.6638963 C316.581002,150.413896 302.576802,196.283896 264.792002,232.813896 C262.460002,235.059996 260.124002,237.751396 258.866202,240.712296 C256.444302,246.278696 256.893502,251.482296 259.854482,255.970296 C266.049782,265.126496 279.331482,265.665596 288.038482,258.841396 C288.577542,258.392176 289.116582,257.942956 289.655682,257.403896 C353.741682,197.176896 361.999682,98.0838963 308.593682,28.1638963 C301.413982,18.6482963 294.234682,8.95689632 283.909682,2.58189632 C278.522982,-0.738403683 271.343682,-0.918103683 265.866682,2.40220632 C265.866682,2.40220632 265.866682,2.49204932 265.776838,2.49204932 C255.006838,9.13264932 254.647838,22.2380493 264.698738,31.7540493 C283.370738,49.4380493 298.538738,70.6210493 304.194738,95.6640493 L304.194002,95.6638963 Z" id="Path"></path>
            <path d="M70.0940024,104.813896 C66.0549024,121.059896 65.5159024,138.114896 69.0159024,154.360896 C74.5823024,180.212896 87.4139024,200.407896 108.058902,216.653896 C117.305002,223.833596 128.253902,223.114796 134.624902,214.856996 C140.910102,206.778896 139.113202,196.368996 129.956902,189.094996 C106.890902,170.961996 97.2849024,146.551996 103.210902,115.672996 C106.261702,99.5169963 116.405902,86.0519963 129.421902,76.0009963 C136.062502,70.8837963 139.741902,64.6029963 137.679702,56.1649963 C134.628902,43.5089963 120.175702,38.9309963 109.046702,47.1883963 C90.7347024,60.8333963 77.8127024,78.6023963 71.2577024,100.415396 C70.8123924,101.938796 70.4530124,103.376296 70.0936024,104.813796 L70.0940024,104.813896 Z" id="Path"></path>
            <path d="M55.7340024,258.843896 C64.4410024,265.664196 77.7260024,265.125096 83.9180024,255.972796 C86.8789024,251.484496 87.3282024,246.277496 84.9062824,240.714796 C83.6484824,237.753896 81.3164824,235.058596 78.9804824,232.816396 C41.1914824,196.285396 27.1914824,150.418396 39.5784824,95.6663963 C45.2346824,70.6233963 60.4024824,49.4393963 79.0704824,31.7603963 C89.1254824,22.2447963 88.7657824,9.14339632 77.9923824,2.49839632 C77.9025384,2.49839632 77.9025384,2.40855232 77.9025384,2.40855232 C72.4298384,-0.915647683 65.2505384,-0.739847683 59.8635384,2.58433232 C49.5395384,8.95543232 42.3595384,18.6503323 35.1795384,28.1663323 C-18.2264616,98.0883323 -9.96846161,197.176332 54.1175384,257.406332 C54.6565984,257.945392 55.1956384,258.394612 55.7347384,258.843832 L55.7340024,258.843896 Z" id="Path"></path>
        </g>
    </g>
</svg>