<?xml version="1.0" encoding="UTF-8"?>
<svg width="533px" height="481px" viewBox="0 0 533 481" version="1.1" xmlns="http://www.w3.org/2000/svg" xmlns:xlink="http://www.w3.org/1999/xlink">
    <title>noun-ux-5370785</title>
    <g id="Page-1" stroke="none" stroke-width="1" fill="none" fill-rule="evenodd">
        <g id="noun-ux-5370785" transform="translate(0.002000, 0.319500)" fill="#FFFFFF" fill-rule="nonzero">
            <path d="M461.438,0 L44.238,0 C19.601,0 0,19.6025 0,43.6805 L0,357.2805 C0,381.3585 19.602,401.5185 44.238,401.5185 L273.278,401.5185 C272.71941,398.7177 272.1569,396.4794 271.5983,393.6787 C271.03971,388.0771 271.5983,383.0377 273.278,377.9987 L43.678,377.9987 C32.479,377.9987 22.959,368.4792 22.959,357.2797 L22.962907,109.1997 L481.602907,109.1997 L481.602907,280.5597 C483.282607,280.00111 484.962307,279.4386 486.642007,278.88 C489.442807,278.32141 492.243607,277.7589 495.040407,277.7589 C498.399807,277.7589 501.759207,278.31749 505.118407,278.88 L505.122313,43.68 C505.680903,19.602 485.520313,0 461.442313,0 L461.438,0 Z M54.878,67.7585 C47.0382,67.7585 40.878,61.5983 40.878,53.7585 C40.878,45.9187 47.0382,39.7585 54.878,39.7585 C62.7178,39.7585 68.878,45.9187 68.878,53.7585 C68.878,61.6023 62.7178,67.7585 54.878,67.7585 Z M96.319,67.7585 C88.4792,67.7585 82.319,61.5983 82.319,53.7585 C82.319,45.9187 88.4792,39.7585 96.319,39.7585 C104.1588,39.7585 110.319,45.9187 110.319,53.7585 C110.319,61.6023 104.1588,67.7585 96.319,67.7585 Z M137.76,67.7585 C129.9202,67.7585 123.76,61.5983 123.76,53.7585 C123.76,45.9187 129.9202,39.7585 137.76,39.7585 C145.5998,39.7585 151.76,45.9187 151.76,53.7585 C151.76,61.6023 145.5998,67.7585 137.76,67.7585 Z M459.76,59.9187 C459.76,63.2781 456.9592,66.0789 453.5998,66.0789 L306.8798,66.0789 C303.5204,66.0789 300.7196,63.2781 300.7196,59.9187 L300.7196,47.5987 C300.7196,44.2393 303.5204,41.4385 306.8798,41.4385 L453.5998,41.4385 C456.9592,41.4385 459.76,44.2393 459.76,47.5987 L459.76,59.9187 Z" id="Shape"></path>
            <path d="M202.158,299.6005 L63.278,299.6005 C60.4772,299.6005 57.6764,297.3622 57.6764,293.9989 L57.6764,282.7999 C57.6764,279.9991 59.9147,277.1983 63.278,277.1983 L202.158,277.1983 C204.9588,277.1983 207.7596,279.4366 207.7596,282.7999 L207.7596,293.9989 C207.7596,297.3583 204.9588,299.6005 202.158,299.6005 Z" id="Path"></path>
            <path d="M202.158,344.4005 L63.278,344.4005 C60.4772,344.4005 57.6764,342.1622 57.6764,338.7989 L57.6764,327.5999 C57.6764,324.7991 59.9147,321.9983 63.278,321.9983 L202.158,321.9983 C204.9588,321.9983 207.7596,324.2366 207.7596,327.5999 L207.7596,338.7989 C207.7596,342.1622 204.9588,344.4005 202.158,344.4005 Z" id="Path"></path>
            <path d="M195.438,254.8005 L69.998,254.8005 C63.2792,254.8005 57.678,249.1989 57.678,242.4805 L57.678,155.6795 C57.678,148.9607 63.2796,143.3595 69.998,143.3595 L194.878,143.3595 C201.5968,143.3595 207.198,148.9611 207.198,155.6795 L207.198,242.4805 C207.7605,249.1993 202.1589,254.8005 195.44,254.8005 L195.438,254.8005 Z" id="Path"></path>
            <path d="M306.878,371.8405 C302.9561,372.39909 299.5968,374.6413 296.8,377.4421 C292.8781,381.364 291.1984,386.9616 291.7609,392.5631 C292.31949,398.1647 295.1203,403.2041 299.6007,406.5631 L371.8387,462.5631 C391.4407,477.6841 416.6397,483.2821 440.7177,478.2431 L475.9987,470.4033 C495.0377,465.9228 510.7177,454.7233 521.3577,438.4813 C531.4357,422.2433 534.7987,402.6413 530.8772,384.1613 L515.1972,314.1613 C512.9589,303.5203 502.3182,297.3603 492.2362,299.6023 C485.5174,301.282 480.4742,305.7625 478.2362,311.9223 L473.1971,323.1213 L470.3963,310.2423 C468.158,299.6013 457.5173,293.4413 447.4353,295.6833 C440.7165,297.363 435.6733,301.8435 433.4353,308.0033 L428.9548,320.3233 L426.1579,306.8783 C423.9196,296.2373 413.2789,290.0773 403.1969,292.3193 C396.4781,293.999 391.4349,298.4795 389.1969,304.6393 L384.7164,316.9593 L365.1144,229.0373 C363.9933,223.9982 361.1925,219.5178 356.716,216.7173 C352.2355,213.9165 347.1965,212.7954 342.157,213.9165 C331.516,216.1548 325.356,226.7955 327.598,236.8775 L360.637,384.1575 C361.19559,386.9583 360.07841,389.7591 357.8362,391.4387 C355.5979,393.1184 352.7971,393.1184 349.9964,391.4387 L321.9964,374.0757 C317.5159,371.2788 311.9184,370.7163 306.8754,371.8374 L306.878,371.8405 Z" id="Path"></path>
            <path d="M400.398,155.1205 C396.4761,152.3197 390.8785,153.9994 388.636,157.9213 C385.8352,161.8432 387.5149,167.4408 391.4368,169.6833 C421.6748,188.7223 430.6358,229.0423 411.5968,259.2853 C408.796,263.2072 410.4757,268.8048 414.3976,271.0473 C416.6359,272.1684 418.8781,272.727 421.1164,272.1684 C423.3547,271.60981 425.0383,270.4887 426.718,268.2465 C450.8,230.7195 439.038,179.7585 400.398,155.1265 L400.398,155.1205 Z" id="Path"></path>
            <path d="M382.478,184.2405 C378.5561,181.4397 372.9585,183.1194 370.716,187.0413 C367.9152,190.9632 369.5949,196.5608 373.5168,198.8033 C388.0758,207.7642 391.9968,226.8033 383.0363,241.3623 C380.2355,245.2842 381.9152,250.8818 385.8371,253.1243 C388.0754,254.2454 390.3176,254.804 392.5559,254.2454 C394.7942,253.68681 396.4778,252.5657 398.1575,250.3235 C411.5985,227.9215 404.8763,198.2415 382.4775,184.2415 L382.478,184.2405 Z" id="Path"></path>
            <path d="M277.758,195.4405 C280.5588,191.5186 278.8791,185.921 274.9572,183.6785 C271.0353,180.8777 265.4377,182.5574 263.1952,186.4793 C238.5542,225.1203 250.3162,276.0813 288.9572,300.1593 C291.1955,301.2804 293.4377,301.839 295.676,301.2804 C297.9143,300.72181 299.5979,299.6007 301.2776,297.3585 C304.0784,293.4366 302.3987,287.839 298.4768,285.5965 C267.6758,265.9985 258.7148,225.6785 277.7578,195.4405 L277.758,195.4405 Z" id="Path"></path>
            <path d="M306.878,213.3605 C309.6788,209.4386 307.9991,203.841 304.0772,201.5985 C300.1553,198.7977 294.5577,200.4774 292.3152,204.3993 C278.3152,226.7973 285.034,256.4773 307.4362,271.0403 C309.6745,272.1614 311.9167,272.72 314.155,272.1614 C316.3933,271.60281 318.0769,270.4817 319.7566,268.2395 C322.5574,264.3176 320.8777,258.72 316.9558,256.4775 C302.3968,246.9619 297.9208,227.9185 306.8778,213.3605 L306.878,213.3605 Z" id="Path"></path>
        </g>
    </g>
</svg>