<?xml version="1.0" encoding="UTF-8"?>
<svg width="532px" height="304px" viewBox="0 0 532 304" version="1.1" xmlns="http://www.w3.org/2000/svg" xmlns:xlink="http://www.w3.org/1999/xlink">
    <title>noun-ab-testing-4235970</title>
    <g id="Page-1" stroke="none" stroke-width="1" fill="none" fill-rule="evenodd">
        <g id="noun-ab-testing-4235970" transform="translate(-0.001000, 0.240000)" fill="#FFFFFF" fill-rule="nonzero">
            <path d="M180.321,160.16 L150.083,156.8006 C147.8447,156.8006 146.1611,155.1209 145.6025,153.4412 L133.2825,126.0002 C129.9231,118.719 119.2825,118.719 115.9235,126.0002 L103.6035,152.8832 C102.4824,154.5629 100.8027,156.2426 98.5644,156.2426 L68.3264,159.602 C60.4866,160.7231 57.1274,170.801 62.7248,175.84 L85.1228,196 C86.8025,197.6797 87.3611,199.3594 86.8025,201.6016 L81.2009,231.8396 C79.5212,239.6794 87.9197,245.8396 95.2009,241.9176 L121.5209,226.7966 C123.2006,225.6755 125.4428,225.6755 127.6811,226.7966 L154.0011,241.9176 C161.2823,245.8395 169.6811,239.6793 168.0011,231.8396 L161.8409,202.1596 C161.28231,199.9213 161.8409,198.2377 163.5206,196.558 L185.9186,176.398 C192.0788,170.8003 188.7194,160.722 180.3209,160.16 L180.321,160.16 Z" id="Path"></path>
            <path d="M210.561,0 L38.641,0 C17.36,0 0,17.359 0,38.641 L0,257.601 C0,282.8 20.719,303.523 45.922,303.523 L203.282,303.523 C228.481,303.523 249.204,282.804 249.204,257.601 L249.200094,38.641 C249.200094,17.364 231.841094,0 210.559094,0 L210.561,0 Z M135.522,28 C143.3618,28 149.522,34.1602 149.522,42 C149.522,49.8398 143.3618,56 135.522,56 C127.6822,56 121.522,49.8398 121.522,42 C121.522,34.1602 127.6822,28 135.522,28 Z M92.401,28 C100.2408,28 106.401,34.1602 106.401,42 C106.401,49.8398 100.2408,56 92.401,56 C84.5612,56 78.401,49.8398 78.401,42 C78.401,34.1602 84.5612,28 92.401,28 Z M49.842,28 C57.6818,28 63.842,34.1602 63.842,42 C63.842,49.8398 57.6818,56 49.842,56 C42.0022,56 35.842,49.8398 35.842,42 C35.28341,34.1602 42.0022,28 49.842,28 Z M224.562,257.6 C224.562,269.362 215.0425,278.881 203.281,278.881 L45.921,278.881 C34.159,278.881 24.64,269.3615 24.64,257.6 L24.64,94.64 C24.64,89.0384 29.1205,84.562 34.718,84.562 L214.478,84.562 C220.0796,84.562 224.556,89.0425 224.556,94.64 L224.562,257.6 Z" id="Shape"></path>
            <path d="M493.361,0 L321.441,0 C300.16,0 282.8,17.359 282.8,38.641 L282.8,257.601 C282.8,282.8 303.519,303.523 328.722,303.523 L486.082,303.523 C511.281,303.523 532.004,282.804 532.004,257.601 L532.000094,38.641 C532.000094,17.364 514.641094,0 493.359094,0 L493.361,0 Z M418.322,28 C426.1618,28 432.322,34.1602 432.322,42 C432.322,49.8398 426.1618,56 418.322,56 C410.4822,56 404.322,49.8398 404.322,42 C404.322,34.1602 410.4822,28 418.322,28 Z M375.201,28 C383.0408,28 389.201,34.1602 389.201,42 C389.201,49.8398 383.0408,56 375.201,56 C367.3612,56 361.201,49.8398 361.201,42 C361.201,34.1602 367.3612,28 375.201,28 Z M332.642,28 C340.4818,28 346.642,34.1602 346.642,42 C346.642,49.8398 340.4818,56 332.642,56 C324.8022,56 318.642,49.8398 318.642,42 C318.0795,34.1602 324.8022,28 332.642,28 Z M507.362,257.6 C507.362,269.362 497.8425,278.881 486.081,278.881 L328.721,278.881 C316.959,278.881 307.44,269.3615 307.44,257.6 L307.443906,94.64 C307.443906,89.0384 311.924406,84.562 317.521906,84.562 L497.281906,84.562 C502.883506,84.562 507.359906,89.0425 507.359906,94.64 L507.362,257.6 Z" id="Shape"></path>
            <path d="M418.321,134.4 C413.2819,125.4391 400.962,125.4391 395.923,134.4 L351.685,217.279 C347.2045,225.6774 353.3647,235.759 362.884,235.759 L451.923,235.759 C461.4425,235.759 467.603,225.681 463.122,217.279 L418.321,134.4 Z" id="Path"></path>
        </g>
    </g>
</svg>