<?xml version="1.0" encoding="UTF-8"?>
<svg width="468px" height="386px" viewBox="0 0 468 386" version="1.1" xmlns="http://www.w3.org/2000/svg" xmlns:xlink="http://www.w3.org/1999/xlink">
    <title>noun-agile-2525741</title>
    <g id="Page-1" stroke="none" stroke-width="1" fill="none" fill-rule="evenodd">
        <g id="noun-agile-2525741" transform="translate(0.753700, 0.004334)" fill="#FFFFFF" fill-rule="nonzero">
            <path d="M236.2463,271.995666 C259.4533,271.995666 281.7073,262.776866 298.1173,246.366666 C314.5273,229.956466 323.7463,207.702666 323.7463,184.495666 C323.7463,161.288666 314.5275,139.034666 298.1173,122.624666 C281.7071,106.214666 259.4533,96.9956661 236.2463,96.9956661 C213.0393,96.9956661 190.7853,106.214466 174.3753,122.624666 C157.9653,139.034866 148.7463,161.288666 148.7463,184.495666 C148.7463,207.702666 157.9651,229.956666 174.3753,246.366666 C190.7855,262.776666 213.0393,271.995666 236.2463,271.995666 Z M186.2853,178.284666 C187.9259,176.628466 190.1642,175.694866 192.4962,175.694866 C194.8282,175.694866 197.0665,176.628456 198.7071,178.284666 L223.1211,202.784666 L273.7851,152.034666 C277.2148,148.601066 282.7773,148.601066 286.2071,152.034666 C289.6407,155.464366 289.6407,161.026866 286.2071,164.456666 L229.3321,221.331666 C227.6915,222.987866 225.4532,223.921466 223.1212,223.921466 C220.7892,223.921466 218.5509,222.987876 216.9103,221.331666 L186.2853,190.706666 C184.6291,189.066066 183.6955,186.827766 183.6955,184.495766 C183.6955,182.163766 184.62909,179.925466 186.2853,178.284866 L186.2853,178.284666 Z" id="Shape"></path>
            <path d="M419.9963,184.495666 L437.4963,184.495666 L418.4223,160.694666 L409.6723,149.319666 C408.0121,147.249366 405.5004,146.046266 402.8481,146.046266 C400.1919,146.046266 397.684,147.249366 396.02,149.319666 L383.598,164.370666 L367.496,184.495666 L384.996,184.495666 C384.996,223.944666 369.324,261.780666 341.43,289.675666 C313.532,317.570666 275.696,333.241666 236.25,333.241666 L8.75,333.241666 C3.918,333.241666 2.84217094e-14,337.159666 2.84217094e-14,341.991666 L2.84217094e-14,359.491666 C2.84217094e-14,361.811966 0.92188,364.038566 2.5625,365.679166 C4.20312,367.319766 6.4297,368.241666 8.75,368.241666 L236.25,368.241666 C284.984,368.241666 331.723,348.882666 366.18,314.421666 C400.641,279.964666 420,233.226666 420,184.491666 L419.9963,184.495666 Z" id="Path"></path>
            <path d="M54.0663,208.385666 L62.8163,219.760666 C64.4765,221.830966 66.9882,223.034066 69.6405,223.034066 C72.2967,223.034066 74.8046,221.830966 76.4686,219.760666 L88.5426,204.709666 L104.9916,184.498666 L87.4916,184.498666 C87.444725,139.060666 108.1676,96.0966661 143.7576,67.8386661 C179.3436,39.5886661 225.8906,29.1506661 270.1376,39.5066661 C314.3796,49.8586661 351.4656,79.8616661 370.8176,120.971666 C372.0637,123.545866 374.4856,125.354466 377.3137,125.807566 C380.1379,126.260686 383.0051,125.303656 384.9934,123.245066 L398.1184,110.120066 C400.8137,107.452066 401.4817,103.354466 399.7825,99.9720661 C380.9505,63.2100661 350.2825,33.8670661 312.7275,16.6750661 C275.1725,-0.515933948 232.9185,-4.55493395 192.7875,5.21006605 C152.6585,14.9795661 116.9865,37.9830661 91.5375,70.5110661 C66.0845,103.038066 52.3305,143.195066 52.4985,184.491066 L34.9985,184.491066 L54.0725,208.292066 L54.0663,208.385666 Z" id="Path"></path>
            <path d="M463.7463,343.925666 L428.7463,315.749666 L428.7463,333.249666 L371.6953,333.249666 C366.1445,338.316066 360.3043,343.046566 354.1953,347.425666 C343.0113,355.624866 330.9843,362.605666 318.3203,368.249666 L428.7503,368.249666 L428.7503,385.749666 L463.7503,357.573666 C465.8206,355.913466 467.0237,353.401766 467.0237,350.749466 C467.0237,348.097166 465.8206,345.585366 463.7503,343.925266 L463.7463,343.925666 Z" id="Path"></path>
            <path d="M96.7663,236.475666 L69.9933,263.248666 C79.3214,282.842666 92.0593,300.619666 107.6183,315.748666 L166.2433,315.748666 C134.1843,298.689666 109.4733,270.494666 96.7663,236.475666 Z" id="Path"></path>
        </g>
    </g>
</svg>