<?xml version="1.0" encoding="UTF-8"?>
<svg width="533px" height="329px" viewBox="0 0 533 329" version="1.1" xmlns="http://www.w3.org/2000/svg" xmlns:xlink="http://www.w3.org/1999/xlink">
    <title>Path</title>
    <g id="Page-1" stroke="none" stroke-width="1" fill="none" fill-rule="evenodd">
        <g id="noun-cloud-2908391" transform="translate(-0.003700, 0.922600)" fill="#FFFFFF" fill-rule="nonzero">
            <path d="M437.9237,139.4374 C432.8846,139.4374 427.8457,139.99599 422.8027,140.5585 C414.9629,88.4805 369.6037,48.1605 315.2827,48.1605 C304.6417,48.1605 294.0017,49.8402 283.9237,52.641 C262.0837,20.719 225.1227,2.84217094e-14 183.6837,2.84217094e-14 C116.4847,2.84217094e-14 62.1637,54.32 62.1637,121.52 C62.1637,128.8012 62.72229,136.079 64.402,143.36 C26.879,156.798 0,192.079 0,233.52 C0,285.598 42,327.598 94.078,327.598 L438.478,327.598 C490.556,327.598 532.556,285.598 532.556,233.52 C532.556,181.438 490.001,139.438 437.923,139.438 L437.9237,139.4374 Z" id="Path"></path>
        </g>
    </g>
</svg>