<?xml version="1.0" encoding="UTF-8"?>
<svg width="560px" height="560px" viewBox="0 0 560 560" version="1.1" xmlns="http://www.w3.org/2000/svg" xmlns:xlink="http://www.w3.org/1999/xlink">
    <title>noun-b2c-4314321</title>
    <g id="Page-1" stroke="none" stroke-width="1" fill="none" fill-rule="evenodd">
        <g id="noun-b2c-4314321" fill="#FFFFFF" fill-rule="nonzero">
            <path d="M245,262.5 L245,17.5 C245,12.8594 243.1562,8.4062 239.875,5.125 C236.5938,1.8438 232.1406,0 227.5,0 L87.5,0 C82.8594,0 78.4062,1.8438 75.125,5.125 C71.8438,8.4062 70,12.8594 70,17.5 L70,70 L17.5,70 C12.8594,70 8.4062,71.8438 5.125,75.125 C1.8438,78.4062 0,82.8594 0,87.5 L0,262.5 C0,267.1406 1.8438,271.5938 5.125,274.875 C8.4062,278.1562 12.8594,280 17.5,280 L227.5,280 C232.1406,280 236.5938,278.1562 239.875,274.875 C243.1562,271.5938 245,267.1406 245,262.5 Z M210,245 L175,245 L175,227.5 C175,221.2461 171.6641,215.469 166.25,212.344 C160.8359,209.219 154.164,209.219 148.75,212.344 C143.336,215.469 140,221.2463 140,227.5 L140,245 L105,245 L105,35 L210,35 L210,245 Z" id="Shape"></path>
            <path d="M344.84,110.16 L339.7658,104.9959 L437.5038,104.9959 L437.5038,227.4959 C437.5038,233.7498 440.8397,239.5269 446.2538,242.6519 C451.6679,245.7769 458.3398,245.7769 463.7538,242.6519 C469.1678,239.5269 472.5038,233.7496 472.5038,227.4959 L472.5038,87.4959 C472.5038,82.8553 470.66,78.4021 467.3788,75.1209 C464.0976,71.8397 459.6444,69.9959 455.0038,69.9959 L339.7638,69.9959 L344.838,64.8318 C348.6974,60.3279 350.0099,54.1758 348.3302,48.4878 C346.6466,42.8003 342.1974,38.3508 336.5102,36.6678 C330.8227,34.9881 324.6702,36.30061 320.1662,40.16 L285.1662,75.16 C281.9045,78.4373 280.0764,82.8709 280.0764,87.496 C280.0764,92.1211 281.9045,96.5546 285.1662,99.832 L320.1662,134.832 C324.6701,138.6914 330.8222,140.0039 336.5102,138.3242 C342.1977,136.6406 346.6472,132.1914 348.3302,126.5042 C350.0099,120.8167 348.69739,114.6642 344.838,110.1602 L344.84,110.16 Z" id="Path"></path>
            <path d="M274.84,425.16 C270.3361,421.3006 264.184,419.9881 258.496,421.6678 C252.8085,423.3514 248.359,427.8006 246.676,433.4878 C244.9963,439.1753 246.30881,445.3278 250.1682,449.8318 L255.2424,454.9959 L122.5024,454.9959 L122.5024,332.4959 C122.5024,326.242 119.1665,320.4649 113.7524,317.3399 C108.3383,314.2149 101.6664,314.2149 96.2524,317.3399 C90.8384,320.4649 87.5024,326.2422 87.5024,332.4959 L87.5024,472.4959 C87.5024,477.1365 89.3462,481.5897 92.6274,484.8709 C95.9086,488.1521 100.3618,489.9959 105.0024,489.9959 L255.2424,489.9959 L250.1682,495.16 C246.4651,498.3319 244.2502,502.9022 244.0627,507.773 C243.8752,512.648 245.7268,517.3785 249.176,520.824 C252.6213,524.2732 257.3518,526.1248 262.227,525.9373 C267.0981,525.7498 271.6684,523.535 274.84,519.8318 L309.84,484.8318 C313.1017,481.5545 314.9298,477.1209 314.9298,472.4958 C314.9298,467.8707 313.1017,463.4372 309.84,460.1598 L274.84,425.16 Z" id="Path"></path>
            <path d="M509.77,393.75 C520.762,379.938 526.129,362.484 524.797,344.883 C523.465,327.281 515.5353,310.836 502.59,298.832 C489.645,286.832 472.649,280.164 454.996,280.164 C437.343,280.164 420.348,286.832 407.402,298.832 C394.457,310.836 386.527,327.281 385.195,344.883 C383.863,362.485 389.2302,379.938 400.222,393.75 C385.265,400.793 372.609,411.926 363.722,425.863 C354.8314,439.801 350.074,455.968 349.995,472.5 L349.995,542.5 C349.995,547.1406 351.8388,551.5938 355.12,554.875 C358.4012,558.1562 362.8544,560 367.495,560 L542.495,560 C547.1356,560 551.5888,558.1562 554.87,554.875 C558.1512,551.5938 559.995,547.1406 559.995,542.5 L559.995,472.5 C559.916875,455.969 555.1591,439.801 546.268,425.863 C537.3813,411.925 524.725,400.793 509.768,393.75 L509.77,393.75 Z M454.997,385 C445.7158,385 436.813,381.3125 430.247,374.75 C423.6845,368.1836 419.997,359.281 419.997,350 C419.997,340.719 423.6845,331.816 430.247,325.25 C436.8134,318.6875 445.716,315 454.997,315 C464.278,315 473.181,318.6875 479.747,325.25 C486.3095,331.8164 489.997,340.719 489.997,350 C489.997,359.281 486.3095,368.184 479.747,374.75 C473.1806,381.3125 464.278,385 454.997,385 Z" id="Shape"></path>
            <path d="M175,87.5 C175,97.1641 167.1641,105 157.5,105 C147.8359,105 140,97.1641 140,87.5 C140,77.8359 147.8359,70 157.5,70 C167.1641,70 175,77.8359 175,87.5" id="Path"></path>
            <path d="M175,157.5 C175,167.1641 167.1641,175 157.5,175 C147.8359,175 140,167.1641 140,157.5 C140,147.8359 147.8359,140 157.5,140 C167.1641,140 175,147.8359 175,157.5" id="Path"></path>
        </g>
    </g>
</svg>