<?xml version="1.0" encoding="UTF-8"?>
<svg width="490px" height="490px" viewBox="0 0 490 490" version="1.1" xmlns="http://www.w3.org/2000/svg" xmlns:xlink="http://www.w3.org/1999/xlink">
    <title>noun-competitive-analysis-4562742</title>
    <g id="Page-1" stroke="none" stroke-width="1" fill="none" fill-rule="evenodd">
        <g id="noun-competitive-analysis-4562742" transform="translate(-0.001380, 0.000880)" fill="#FFFFFF" fill-rule="nonzero">
            <path d="M474.00138,396.75912 L362.37138,285.12912 C362.10966,284.8674 361.77763,284.79709 361.512,284.551 C376.477,257.18 385,225.821 385,192.5 C385,86.36 298.637,5.68434189e-14 192.5,5.68434189e-14 C86.363,5.68434189e-14 5.68434189e-14,86.363 5.68434189e-14,192.5 C5.68434189e-14,298.637 86.363,385 192.5,385 C225.82,385 257.18,376.4766 284.551,361.516 C284.77756,361.77772 284.86741,362.12928 285.12912,362.37538 L396.75912,474.00538 C407.40012,484.64638 421.38012,489.96638 435.38012,489.96638 C449.38012,489.96638 463.36412,484.64608 474.02112,474.00538 C495.28312,452.68938 495.28312,418.03638 474.001588,396.75938 L474.00138,396.75912 Z M192.50138,34.99841 C279.33738,34.99841 350.00138,105.64712 350.00138,192.49912 C350.00138,210.92512 346.65758,228.55012 340.81388,244.99912 L280.00188,244.99912 L280.00188,209.99912 C280.00188,200.32332 272.16208,192.49912 262.50188,192.49912 L210.00188,192.49912 L210.00188,151.84712 L286.51388,121.25712 C293.14278,118.57742 297.50188,112.15552 297.50188,104.99912 C297.50188,97.84272 293.14248,91.42112 286.51388,88.74112 L199.01388,53.74112 C193.62328,51.60442 187.51788,52.25282 182.70488,55.50672 C177.88848,58.76452 175.00178,64.19032 175.00178,69.99872 L175.00178,139.61172 L175.00178,140.41641 L175.00178,192.49841 L122.50178,192.49841 C112.84158,192.49841 105.00178,200.32261 105.00178,209.99841 L105.00178,227.49841 L39.06078,227.49841 C36.49048,216.22841 35.00218,204.53741 35.00218,192.49841 C35.00218,105.64641 105.66618,34.99841 192.50218,34.99841 L192.50138,34.99841 Z M210.00138,114.15112 L210.00138,95.84612 L232.89238,104.99842 L210.00138,114.15112 Z M51.61938,262.50112 L122.49638,262.50112 C132.15658,262.50112 139.99638,254.67692 139.99638,245.00112 L139.99638,227.50112 L244.99638,227.50112 L244.99638,262.50112 C244.99638,272.17692 252.83618,280.00112 262.49638,280.00112 L323.35938,280.00112 C295.06238,322.17712 246.97238,350.00112 192.49938,350.00112 C130.81138,350.00112 77.44938,314.26712 51.61938,262.50112 L51.61938,262.50112 Z M449.26138,449.26112 C441.59728,456.92522 429.17138,456.92522 421.50738,449.26112 L313.93738,341.69112 C324.10538,333.39422 333.39838,324.10512 341.69138,313.93712 L449.26138,421.50712 C456.90588,429.15162 456.89028,441.59312 449.26138,449.26112 Z" id="Shape"></path>
        </g>
    </g>
</svg>