<?xml version="1.0" encoding="UTF-8"?>
<svg width="490px" height="386px" viewBox="0 0 490 386" version="1.1" xmlns="http://www.w3.org/2000/svg" xmlns:xlink="http://www.w3.org/1999/xlink">
    <title>Shape</title>
    <g id="Page-1" stroke="none" stroke-width="1" fill="none" fill-rule="evenodd">
        <g id="noun-c-3780083" transform="translate(-0.000000, 0.500000)" fill="#FFFFFF" fill-rule="nonzero">
            <path d="M481.25,0 L8.75,0 C3.918,0 2.84217094e-14,3.918 2.84217094e-14,8.75 L2.84217094e-14,70 L490,70 L490,8.75 C490,6.4297 489.07812,4.2031 487.4375,2.5625 C485.79688,0.9219 483.5703,0 481.25,0 Z M43.75,43.75 C40.2109,43.75 37.0195,41.6172 35.668,38.3477 C34.3125,35.0782 35.05862,31.3165 37.5625,28.8125 C40.06638,26.3085 43.8281,25.5625 47.0977,26.918 C50.3672,28.2696 52.5,31.461 52.5,35 C52.5,37.3203 51.57812,39.5469 49.9375,41.1875 C48.29688,42.8281 46.0703,43.75 43.75,43.75 Z M78.75,43.75 C75.2109,43.75 72.0195,41.6172 70.668,38.3477 C69.3125,35.0782 70.05862,31.3165 72.5625,28.8125 C75.06638,26.3085 78.8281,25.5625 82.0977,26.918 C85.3672,28.2696 87.5,31.461 87.5,35 C87.5,37.3203 86.57812,39.5469 84.9375,41.1875 C83.29688,42.8281 81.0703,43.75 78.75,43.75 Z M113.75,43.75 C110.2109,43.75 107.0195,41.6172 105.668,38.3477 C104.3125,35.0782 105.05862,31.3165 107.5625,28.8125 C110.06638,26.3085 113.8281,25.5625 117.0977,26.918 C120.3672,28.2696 122.5,31.461 122.5,35 C122.5,37.3203 121.57812,39.5469 119.9375,41.1875 C118.29688,42.8281 116.0703,43.75 113.75,43.75 Z M446.25,43.75 L253.75,43.75 C248.918,43.75 245,39.832 245,35 C245,30.168 248.918,26.25 253.75,26.25 L446.25,26.25 C451.082,26.25 455,30.168 455,35 C455,39.832 451.082,43.75 446.25,43.75 Z M2.84217094e-14,376.25 C2.84217094e-14,378.5703 0.92188,380.7969 2.5625,382.4375 C4.20312,384.0781 6.4297,385 8.75,385 L481.25,385 C483.5703,385 485.7969,384.07812 487.4375,382.4375 C489.0781,380.79688 490,378.5703 490,376.25 L490,87.5 L2.84217094e-14,87.5 L2.84217094e-14,376.25 Z M341.25,227.5 L367.5,227.5 L367.5,201.25 C367.5,196.418 371.418,192.5 376.25,192.5 C381.082,192.5 385,196.418 385,201.25 L385,227.5 L411.25,227.5 C416.082,227.5 420,231.418 420,236.25 C420,241.082 416.082,245 411.25,245 L385,245 L385,271.25 C385,276.082 381.082,280 376.25,280 C371.418,280 367.5,276.082 367.5,271.25 L367.5,245 L341.25,245 C336.418,245 332.5,241.082 332.5,236.25 C332.5,231.418 336.418,227.5 341.25,227.5 Z M236.25,227.5 L262.5,227.5 L262.5,201.25 C262.5,196.418 266.418,192.5 271.25,192.5 C276.082,192.5 280,196.418 280,201.25 L280,227.5 L306.25,227.5 C311.082,227.5 315,231.418 315,236.25 C315,241.082 311.082,245 306.25,245 L280,245 L280,271.25 C280,276.082 276.082,280 271.25,280 C266.418,280 262.5,276.082 262.5,271.25 L262.5,245 L236.25,245 C231.418,245 227.5,241.082 227.5,236.25 C227.5,231.418 231.418,227.5 236.25,227.5 Z M70,183.75 C70.015625,169.832 75.5508,156.484 85.395,146.645 C95.2348,136.8012 108.583,131.266 122.5,131.25 L157.5,131.25 C171.418,131.265625 184.766,136.8008 194.605,146.645 C204.4488,156.4848 209.984,169.833 210,183.75 L210,192.5 C210,197.332 206.082,201.25 201.25,201.25 C196.418,201.25 192.5,197.332 192.5,192.5 L192.5,183.75 C192.492188,174.4688 188.8008,165.574 182.238,159.012 C175.6752,152.45 166.781,148.758 157.5,148.75 L122.5,148.75 C113.2188,148.757812 104.324,152.4492 97.762,159.012 C91.2,165.5748 87.508,174.469 87.5,183.75 L87.5,288.75 C87.507812,298.0312 91.1992,306.926 97.762,313.488 C104.3248,320.05 113.219,323.742 122.5,323.75 L157.5,323.75 C166.7812,323.742188 175.676,320.0508 182.238,313.488 C188.8,306.9252 192.492,298.031 192.5,288.75 L192.5,280 C192.5,275.168 196.418,271.25 201.25,271.25 C206.082,271.25 210,275.168 210,280 L210,288.75 C209.984375,302.668 204.4492,316.016 194.605,325.855 C184.7652,335.6988 171.417,341.234 157.5,341.25 L122.5,341.25 C108.582,341.234375 95.234,335.6992 85.395,325.855 C75.5512,316.0152 70.016,302.667 70,288.75 L70,183.75 Z" id="Shape"></path>
        </g>
    </g>
</svg>