<?xml version="1.0" encoding="UTF-8"?>
<svg width="483px" height="483px" viewBox="0 0 483 483" version="1.1" xmlns="http://www.w3.org/2000/svg" xmlns:xlink="http://www.w3.org/1999/xlink">
    <title>noun-customer-centricity-1802497</title>
    <g id="Page-1" stroke="none" stroke-width="1" fill="none" fill-rule="evenodd">
        <g id="noun-customer-centricity-1802497" transform="translate(0.477837, 0.397837)" fill="#FFFFFF" fill-rule="nonzero">
            <path d="M241.132163,98.96232 C214.448163,98.96232 192.741163,78.056163 191.718163,51.372163 C191.210353,38.161163 195.878363,25.544163 204.863163,15.852163 C213.843663,6.15686296 226.070163,0.536162957 239.281163,0.0321629572 C266.879163,-0.940497043 289.562163,20.266163 290.617163,47.587163 C291.652363,74.853163 270.316163,97.880163 243.062163,98.927163 C242.409823,98.950601 241.773063,98.96232 241.132463,98.96232 L241.132163,98.96232 Z" id="Path"></path>
            <path d="M268.142163,136.472163 C265.626563,132.569863 260.419463,131.452663 256.533163,133.956563 L248.255863,139.280763 L248.388673,112.780763 C248.41211,108.140163 244.669873,104.362763 240.033173,104.335463 L239.990204,104.335463 C235.369104,104.335463 231.611304,108.069863 231.591804,112.690963 L231.451184,139.280963 L225.833984,135.624763 C221.947284,133.093563 216.740184,134.191163 214.208984,138.077863 C211.677784,141.964563 212.775384,147.171663 216.662084,149.702863 L235.185084,161.764863 C235.274928,161.827363 235.380394,161.842989 235.470244,161.897673 C235.923364,162.167203 236.399934,162.366423 236.888244,162.553923 C237.118714,162.63986 237.325744,162.749233 237.560114,162.811733 C238.267144,163.003143 238.989814,163.120323 239.720314,163.124233 C239.735939,163.124233 239.75547,163.128139 239.771095,163.128139 L239.775001,163.128139 C239.790626,163.128139 239.810157,163.124233 239.829689,163.124233 C240.540629,163.120326 241.259389,163.010953 241.950789,162.823453 C242.181259,162.760953 242.392199,162.643763 242.618759,162.565643 C242.997669,162.432833 243.384379,162.323453 243.743759,162.128143 C243.857039,162.073455 243.927349,161.983613 244.028919,161.921113 C244.122669,161.866426 244.220329,161.846895 244.314079,161.792203 L265.611079,148.085203 C269.525179,145.569603 270.650179,140.374303 268.142279,136.472203 L268.142163,136.472163 Z" id="Path"></path>
            <path d="M241.202163,383.362007 C267.893163,383.362007 289.597163,404.260163 290.616163,430.952163 C291.123973,444.155163 286.455963,456.772163 277.471163,466.472163 C268.490663,476.167463 256.264163,481.788163 243.053163,482.292163 C215.455163,483.264823 192.764163,462.058163 191.717163,434.737163 C190.681963,407.475163 212.018163,384.448163 239.279163,383.397163 C239.923693,383.373726 240.560363,383.362007 241.201063,383.362007 L241.202163,383.362007 Z" id="Path"></path>
            <path d="M214.192163,345.852163 C216.707763,349.754463 221.914863,350.871663 225.801163,348.367763 L234.078463,343.043563 L233.945653,369.543563 C233.922216,374.180263 237.664453,377.961563 242.301153,377.988863 L242.344121,377.988863 C246.965221,377.988863 250.723021,374.254463 250.742521,369.633363 L250.883141,343.043363 L256.500341,346.695663 C260.387041,349.226863 265.594141,348.129263 268.125341,344.242563 C270.656541,340.355863 269.558941,335.152763 265.672241,332.617563 L247.149241,320.555563 C247.055491,320.500875 246.953931,320.477438 246.856271,320.426653 C246.407051,320.153213 245.926581,319.957903 245.438271,319.770403 C245.215611,319.692279 245.000771,319.578993 244.766401,319.516493 C244.067181,319.321183 243.344501,319.207903 242.610201,319.196183 L242.555513,319.196183 L242.551607,319.196183 C242.535982,319.196183 242.516451,319.200089 242.496919,319.200089 C241.785979,319.203995 241.067219,319.317279 240.375819,319.500869 C240.145349,319.567276 239.934409,319.672749 239.703949,319.762589 C239.328949,319.891499 238.938319,320.004779 238.578949,320.192279 C238.473479,320.254779 238.399259,320.336809 238.297699,320.395399 C238.203949,320.450087 238.106289,320.473525 238.016449,320.524309 L216.719449,334.231309 C212.809249,336.754709 211.684249,341.950109 214.192149,345.852309 L214.192163,345.852163 Z" id="Path"></path>
            <path d="M383.361194,241.132163 C383.361194,214.448163 404.268163,192.741163 430.952163,191.718163 C444.163163,191.210353 456.780163,195.878363 466.479163,204.863163 C476.178363,213.843663 481.788163,226.070163 482.299163,239.281163 C483.271823,266.871163 462.065163,289.562163 434.744163,290.617163 C407.482163,291.652363 384.451163,270.316163 383.404163,243.062163 C383.380725,242.409823 383.361194,241.773063 383.361194,241.132463 L383.361194,241.132163 Z" id="Path"></path>
            <path d="M345.862163,268.132163 C349.764463,265.616563 350.881663,260.409463 348.377763,256.523163 L343.053563,248.253663 L369.545563,248.382573 C374.186163,248.409917 377.967463,244.671673 377.990863,240.027073 L377.990863,239.984104 C377.990863,235.363004 374.260363,231.605204 369.635363,231.585704 L343.045363,231.445084 L346.701563,225.827884 C349.232763,221.941184 348.135163,216.734084 344.248463,214.202884 C340.361763,211.671684 335.154663,212.769284 332.623463,216.655984 L320.561463,235.178984 C320.498963,235.268828 320.483338,235.374294 320.432553,235.464144 C320.159113,235.917264 319.955993,236.393834 319.776303,236.882144 C319.690365,237.112614 319.584893,237.319644 319.518493,237.554024 C319.327083,238.261054 319.209903,238.983724 319.205993,239.714224 C319.205993,239.729849 319.202086,239.749381 319.202086,239.765005 L319.202086,239.768912 C319.202086,239.784537 319.213805,239.804068 319.213805,239.823599 C319.217711,240.534539 319.327085,241.253299 319.514585,241.944699 C319.577085,242.175169 319.686465,242.386109 319.772395,242.616579 C319.905205,242.991579 320.014585,243.382199 320.209895,243.741579 C320.264582,243.847049 320.350515,243.921269 320.413015,244.022829 C320.467702,244.124389 320.487234,244.218139 320.541925,244.307989 L334.248925,265.604989 C336.764525,269.515189 341.959825,270.640189 345.861925,268.132289 L345.862163,268.132163 Z" id="Path"></path>
            <path d="M98.962319,241.192163 C98.962319,267.876163 78.064163,289.583163 51.372163,290.606163 C38.169163,291.113973 25.552163,286.445963 15.852163,277.461163 C6.15686296,268.480663 0.536162957,256.254163 0.0321629572,243.043163 C-0.940497043,215.445163 20.266163,192.762163 47.587163,191.707163 C74.849163,190.671963 97.876163,212.008163 98.927163,239.269163 C98.9506,239.913693 98.962319,240.554363 98.962319,241.191063 L98.962319,241.192163 Z" id="Path"></path>
            <path d="M136.472163,214.182163 C132.569863,216.697763 131.452663,221.904863 133.956563,225.791163 L139.280763,234.068463 L112.780763,233.935653 C108.144063,233.912215 104.362763,237.654453 104.335463,242.291153 L104.335463,242.334122 C104.335463,246.955222 108.069863,250.705222 112.690963,250.732522 L139.280963,250.865332 L135.628663,256.482532 C133.097463,260.369232 134.195063,265.576332 138.081763,268.107532 C141.968463,270.638732 147.171563,269.541132 149.706763,265.654432 L161.768763,247.134432 C161.823451,247.040682 161.846888,246.939122 161.897673,246.841462 C162.171113,246.388332 162.366423,245.911772 162.553923,245.423462 C162.632048,245.192992 162.745333,244.985962 162.807833,244.751582 C163.003143,244.044552 163.116423,243.321882 163.128143,242.591382 L163.128143,242.5406 L163.128143,242.536694 C163.128143,242.521069 163.124237,242.501538 163.124237,242.482006 C163.12033,241.771066 163.007047,241.052306 162.823457,240.360906 C162.75705,240.130436 162.651577,239.919496 162.561737,239.689026 C162.432827,239.314026 162.319547,238.923406 162.132047,238.564026 C162.069547,238.458556 161.987517,238.384336 161.928927,238.282776 C161.87424,238.189026 161.850802,238.091366 161.800017,238.001526 L148.093017,216.704526 C145.573517,212.798326 140.382117,211.669326 136.472017,214.181126 L136.472163,214.182163 Z" id="Path"></path>
            <path d="M341.742163,341.692163 C360.609163,322.825163 390.742163,322.258163 410.332163,340.403063 C420.031363,349.383563 425.652163,361.610063 426.164163,374.821063 C426.668073,388.024063 421.996163,400.641063 413.008163,410.341063 C394.192163,430.540063 363.153163,431.595063 343.086163,413.016863 C323.082163,394.461863 321.879163,363.098863 340.410363,343.082863 C340.851773,342.606303 341.293173,342.145363 341.742363,341.692263 L341.742163,341.692163 Z" id="Path"></path>
            <path d="M296.122163,334.262163 C300.665163,335.242633 305.133863,332.351963 306.114363,327.832463 L308.196363,318.219163 L326.833363,337.047163 C330.098963,340.351863 335.411463,340.379163 338.712363,337.11357 C338.724082,337.101851 338.735801,337.090132 338.747519,337.078413 C342.013119,333.812813 342.028719,328.519813 338.774863,325.230413 L320.071863,306.332413 L326.634363,304.949613 C331.177363,303.992583 334.071863,299.535513 333.118763,295.004313 C332.153923,290.457413 327.696863,287.555113 323.161763,288.512113 L301.540763,293.074613 C301.427483,293.098051 301.345453,293.164457 301.239983,293.191803 C300.724363,293.316803 300.247793,293.512113 299.771183,293.730863 C299.552433,293.836333 299.329773,293.902743 299.114933,294.027743 C298.482123,294.387123 297.888333,294.824623 297.368833,295.332443 C297.357114,295.344162 297.341489,295.348068 297.329771,295.359786 L297.325864,295.363693 L297.321958,295.363693 C297.310239,295.379318 297.306333,295.398849 297.294614,295.414474 C296.790704,295.922284 296.361024,296.500374 296.005514,297.129274 C295.888324,297.336304 295.814104,297.566774 295.712544,297.785524 C295.544574,298.148804 295.341454,298.496464 295.224264,298.894924 C295.185201,299.008204 295.19692,299.117584 295.161764,299.234764 C295.13442,299.340234 295.075826,299.418354 295.056294,299.527734 L289.692994,324.285734 C288.712524,328.805234 291.591394,333.277934 296.122694,334.262334 L296.122163,334.262163 Z" id="Path"></path>
            <path d="M140.592163,140.622163 C121.725163,159.493163 91.592163,160.060163 72.002163,141.911263 C62.302963,132.930763 56.686163,120.708263 56.178163,107.501263 C55.674253,94.290263 60.346163,81.673263 69.326163,71.981263 C88.146163,51.782263 119.189163,50.735263 139.252163,69.309363 C159.260163,87.856363 160.459163,119.227363 141.927963,139.243363 C141.486553,139.716023 141.037343,140.176953 140.592063,140.622263 L140.592163,140.622163 Z" id="Path"></path>
            <path d="M186.212163,148.062163 C181.669163,147.081693 177.200463,149.972363 176.219963,154.491863 L174.137963,164.105163 L155.496963,145.273163 C152.231363,141.976263 146.918863,141.945063 143.613963,145.210663 C143.610057,145.222382 143.590525,145.2341 143.586619,145.245819 C140.321019,148.511419 140.305419,153.808319 143.559275,157.093819 L162.258275,175.991819 L155.707475,177.382419 C151.164475,178.339449 148.266075,182.796519 149.215275,187.335519 C150.172305,191.878519 154.629375,194.776919 159.172275,193.819919 L180.801275,189.257419 C180.902835,189.233981 180.992685,189.171481 181.098155,189.144139 C181.613775,189.015229 182.090345,188.819919 182.566955,188.601169 C182.777895,188.495699 183.008365,188.429289 183.215395,188.304289 C183.852115,187.944909 184.441995,187.507409 184.969295,187.003489 C184.981014,186.99177 184.992732,186.980051 185.004451,186.968332 L185.008357,186.964426 C185.020076,186.952707 185.031795,186.937082 185.043514,186.921457 C185.543514,186.413647 185.973204,185.827657 186.332614,185.206657 C186.449804,184.999627 186.524024,184.769157 186.617774,184.546497 C186.789654,184.187117 186.988864,183.835557 187.109964,183.444897 C187.137308,183.327707 187.133401,183.210517 187.164651,183.105057 C187.191995,182.999587 187.250589,182.913647 187.270121,182.812087 L192.633421,158.058087 C193.625611,153.515087 190.746721,149.046387 186.211521,148.061987 L186.212163,148.062163 Z" id="Path"></path>
            <path d="M140.642163,341.732163 C159.509163,360.599163 160.076163,390.732163 141.931263,410.322163 C132.950763,420.021363 120.724263,425.642163 107.513263,426.154163 C94.310263,426.658073 81.693263,421.986163 71.993263,412.998163 C51.794263,394.182163 50.739263,363.143163 69.317463,343.076163 C87.872463,323.072163 119.235463,321.869163 139.251463,340.400363 C139.728023,340.841773 140.185053,341.283173 140.642063,341.732363 L140.642163,341.732163 Z" id="Path"></path>
            <path d="M148.062163,296.112163 C147.081693,300.655163 149.972363,305.123863 154.491863,306.104363 L164.105163,308.186363 L145.277163,326.823363 C141.972463,330.088963 141.945163,335.401463 145.210757,338.702363 L145.245913,338.737519 C148.511513,342.003119 153.804513,342.018719 157.093913,338.764863 L175.991913,320.061863 L177.374713,326.624363 C178.331743,331.167363 182.788813,334.061863 187.320013,333.108763 C191.866913,332.143923 194.769213,327.686863 193.812213,323.151763 L189.249713,301.530763 C189.226275,301.417483 189.159869,301.335453 189.132523,301.229983 C189.007523,300.714363 188.812213,300.237793 188.593463,299.761183 C188.487993,299.542433 188.421583,299.319773 188.296583,299.104933 C187.937203,298.472123 187.499703,297.878333 186.991883,297.358833 C186.980165,297.347115 186.976258,297.331489 186.964539,297.319771 L186.960633,297.315865 L186.960633,297.311958 C186.945008,297.300239 186.925477,297.296333 186.909852,297.284615 C186.402042,296.780705 185.823952,296.351025 185.195052,295.995515 C184.988022,295.878325 184.757552,295.804105 184.538802,295.702545 C184.175522,295.534575 183.827862,295.331455 183.429402,295.214265 C183.316122,295.175202 183.206742,295.186921 183.089562,295.151765 C182.984092,295.124421 182.905972,295.065828 182.796592,295.046295 L158.038592,289.682995 C153.522992,288.706435 149.050292,291.581395 148.061992,296.112695 L148.062163,296.112163 Z" id="Path"></path>
            <path d="M341.702163,140.582163 C322.831163,121.715163 322.261163,91.582163 340.413063,71.992163 C349.393563,62.292963 361.616063,56.676163 374.823063,56.168163 C388.026063,55.664253 400.651063,60.336163 410.343063,69.316163 C430.542063,88.136163 431.597063,119.179163 413.018863,139.242163 C394.471863,159.250163 363.100863,160.449163 343.084863,141.917963 C342.612203,141.476553 342.151273,141.031243 341.702063,140.582063 L341.702163,140.582163 Z" id="Path"></path>
            <path d="M334.272163,186.202163 C335.256543,181.659163 332.361963,177.190463 327.842463,176.209963 L318.229163,174.127963 L337.061163,155.486963 C340.358063,152.221363 340.389263,146.908863 337.123663,143.603963 C337.111945,143.600057 337.100226,143.580526 337.088507,143.576619 C333.822907,140.311019 328.529907,140.295419 325.244507,143.549276 L306.346507,162.248276 L304.955907,155.697476 C303.998877,151.154476 299.541807,148.256076 295.002807,149.205276 C290.459807,150.162306 287.565307,154.619376 288.522307,159.162276 L293.080907,180.791276 C293.108251,180.892836 293.170751,180.982686 293.194187,181.088156 C293.323097,181.603776 293.526217,182.080346 293.737157,182.556956 C293.850437,182.767896 293.909037,182.998366 294.034037,183.205396 C294.393417,183.842116 294.830917,184.431996 295.334837,184.959296 C295.350462,184.971015 295.362181,184.982733 295.373899,184.994452 L295.377806,184.998359 C295.389525,185.010077 295.405149,185.021796 295.420775,185.033515 C295.928585,185.533515 296.506675,185.963205 297.135575,186.322615 C297.342605,186.439805 297.573075,186.514025 297.795735,186.607775 C298.155105,186.779655 298.506675,186.978865 298.893435,187.099965 C299.010625,187.127309 299.127815,187.123403 299.241095,187.154653 C299.346565,187.181996 299.432505,187.24059 299.534065,187.260123 L324.284065,192.631223 C328.811365,193.619503 333.287965,190.740623 334.272365,186.201523 L334.272163,186.202163 Z" id="Path"></path>
            <path d="M241.162163,243.872163 C222.307163,243.872163 206.974163,228.532163 206.974163,209.677163 C206.974163,190.822163 222.314163,175.489163 241.162163,175.489163 C260.010163,175.489163 275.350163,190.829163 275.350163,209.677163 C275.350163,228.536163 260.014163,243.872163 241.162163,243.872163 Z" id="Path"></path>
            <path d="M288.342163,293.872163 L288.342163,293.786226 C288.342163,267.657226 267.158163,246.474226 241.022163,246.474226 C214.886163,246.474226 193.702163,267.658226 193.702163,293.786226 L193.702163,293.872163 L288.342163,293.872163 Z" id="Path"></path>
        </g>
    </g>
</svg>