<?xml version="1.0" encoding="UTF-8"?>
<svg width="526px" height="526px" viewBox="0 0 526 526" version="1.1" xmlns="http://www.w3.org/2000/svg" xmlns:xlink="http://www.w3.org/1999/xlink">
    <title>noun-data-analysis-4936188</title>
    <g id="Page-1" stroke="none" stroke-width="1" fill="none" fill-rule="evenodd">
        <g id="noun-data-analysis-4936188" transform="translate(0.683300, 0.671318)" fill="#FFFFFF" fill-rule="nonzero">
            <path d="M508.6067,508.618682 C487.2787,530.028682 452.6067,529.946682 431.1967,508.618682 L340.9347,418.278682 C341.42689,417.868522 341.84095,417.454462 342.1691,417.126382 L417.0281,342.185382 C417.52029,341.693192 417.93435,341.279132 418.2625,340.950982 L508.6025,431.290982 C529.9345,452.618982 530.0165,487.290982 508.606407,508.618982" id="Path"></path>
            <path d="M384.8367,310.148682 C386.4031,308.582282 388.1297,307.265882 390.0242,306.277582 L383.0242,289.558582 C376.7664,302.324582 369.1882,314.265582 360.6262,325.218582 C355.7668,331.558382 350.3332,337.738582 344.0712,343.995582 C339.954,348.112782 335.5048,352.147882 330.8952,356.018582 C318.3792,366.643582 304.4612,375.702582 289.5552,383.030582 L306.1922,390.030582 C307.18048,388.218082 308.4149,386.487582 309.9813,384.925082 L384.8367,310.148682 Z" id="Path"></path>
            <path d="M339.7067,339.628682 C345.5544,333.780982 350.9057,327.769682 355.7657,321.429682 C364.6602,310.148682 371.9887,298.206682 377.9997,285.769682 C379.07,283.629082 380.0583,281.488482 380.9645,279.347782 C413.2455,206.382782 399.4095,118.097782 339.7065,58.307782 C297.8705,16.467782 241.9525,-2.80121802 187.1865,0.327781978 C140.2455,3.04658198 94.2095,22.397782 58.3065,58.222782 C-19.4355,135.964782 -19.4355,261.962782 58.3065,339.702782 C94.1305,375.526782 140.1655,394.714782 186.9465,397.597782 C218.3215,399.492282 250.0285,393.972782 279.3445,380.960782 C281.4851,379.972502 283.6257,378.984182 285.7664,377.995982 C300.3444,370.995982 314.1764,362.100982 326.9424,351.229982 C331.3096,347.612782 335.5947,343.741682 339.7124,339.624982 M92.7324,305.280982 C34.0134,246.561982 34.0134,151.360982 92.7324,92.640982 C151.3694,34.003982 246.5724,34.003982 305.2824,92.723013 C363.9194,151.442013 363.9194,246.563013 305.2824,305.193013 C246.5634,363.916013 151.3624,363.998013 92.7324,305.278951" id="Shape"></path>
            <path d="M412.7567,314.428682 C406.2489,307.924782 395.7097,307.924782 389.2877,314.428682 L389.205669,314.510714 L314.346669,389.287714 C307.838869,395.791614 307.838869,406.334714 314.346669,412.842714 C320.358369,418.854414 329.994669,419.264614 336.498669,413.830994 C336.990859,413.584904 337.404919,413.170834 337.815069,412.760694 L412.674069,337.819694 C413.084229,337.409534 413.498289,336.995474 413.826369,336.503294 C419.177969,330.077494 418.763869,320.441294 412.756069,314.429294" id="Path"></path>
            <path d="M182.1267,167.277776 L160.1967,167.277776 C155.9233,167.277776 152.4545,170.747482 152.4545,175.020882 L152.4545,268.582882 C152.4545,272.856282 155.9233,276.325082 160.1967,276.325082 L182.1267,276.321176 C186.4079,276.321176 189.8689,272.852376 189.8689,268.578976 L189.864994,175.019976 C189.864994,170.742676 186.407994,167.277776 182.126694,167.277776" id="Path"></path>
            <path d="M238.6967,189.678682 L216.0557,189.678682 C211.7823,189.678682 208.3135,193.147482 208.3135,197.420882 L208.3135,268.588882 C208.3135,272.862282 211.7823,276.331082 216.0557,276.331082 L238.6967,276.331082 C242.9779,276.331082 246.4389,272.862282 246.4389,268.588882 L246.4389,197.420882 C246.4389,193.143582 242.9819,189.678682 238.6967,189.678682" id="Path"></path>
            <path d="M293.4467,121.638682 L271.5167,121.638682 C267.2433,121.638682 263.7667,125.107482 263.7667,129.380882 L263.7667,268.580882 C263.7667,272.854282 267.2433,276.330882 271.5167,276.330882 L293.4467,276.330882 C297.7279,276.330882 301.1889,272.854282 301.1889,268.580882 L301.1889,129.380882 C301.1889,125.107482 297.728,121.638682 293.4467,121.638682" id="Path"></path>
            <path d="M126.4167,222.038682 L104.4867,222.038682 C100.2133,222.038682 96.7445,225.507482 96.7445,229.780882 L96.7445,268.577882 C96.7445,272.851282 100.2133,276.320082 104.4867,276.320082 L126.4167,276.320082 C130.6979,276.320082 134.1589,272.851282 134.1589,268.577882 L134.1589,229.780882 C134.1589,225.507482 130.7019,222.038682 126.4167,222.038682" id="Path"></path>
        </g>
    </g>
</svg>