<?xml version="1.0" encoding="UTF-8"?>
<svg width="359px" height="333px" viewBox="0 0 359 333" version="1.1" xmlns="http://www.w3.org/2000/svg" xmlns:xlink="http://www.w3.org/1999/xlink">
    <title>Shape</title>
    <g id="Page-1" stroke="none" stroke-width="1" fill="none" fill-rule="evenodd">
        <g id="noun-git-3254043" transform="translate(0.338558, 0.236706)" fill="#FFFFFF" fill-rule="nonzero">
            <path d="M31.941442,62.723294 C35.300842,62.723294 38.660242,62.164704 42.019442,61.043594 L80.660442,75.602594 C95.781442,81.204194 105.859442,96.321594 105.859442,112.563594 C105.859442,132.165594 117.621442,149.524594 135.539442,156.801594 L148.980442,161.840694 C147.300742,165.762594 146.179642,170.239094 146.179642,175.281694 C146.179642,193.203694 160.738642,207.203694 178.101642,207.203694 C184.261842,207.203694 189.863642,205.523994 194.902642,202.723194 L227.941642,214.485194 C242.500642,219.524294 252.582642,233.524194 252.582642,249.204194 C252.582642,264.884194 262.660642,278.884194 277.781642,283.923194 L295.140642,289.524794 C294.019542,292.884194 293.460942,296.243594 293.460942,300.165794 C293.460942,318.087794 308.019942,332.087794 325.382942,332.087794 C343.304942,332.087794 357.304942,317.528794 357.304942,300.165794 C357.304942,282.243794 342.745942,268.243794 325.382942,268.243794 C317.543142,268.243794 310.823942,271.044594 305.222942,275.524994 L283.382942,268.243794 C274.984542,265.442994 269.382942,257.602794 269.382942,249.204794 C269.382942,226.806794 255.382942,206.083794 234.101942,198.806794 L207.781942,189.287294 C208.903042,187.607594 209.461642,185.365394 210.020242,183.685694 L295.141242,183.685694 C299.063142,197.126694 311.379242,207.763694 325.942242,207.763694 C343.864242,207.763694 357.864242,193.204694 357.864242,175.841694 C357.864242,157.919694 343.305242,143.919694 325.942242,143.919694 C310.821242,143.919694 298.501242,153.997694 295.141242,167.997694 L209.461242,168.0016 C206.101842,153.4426 193.781242,143.3646 178.660242,143.3646 C171.941442,143.3646 165.781242,145.6029 160.738242,148.9662 L142.258242,141.685 C130.496242,137.2045 122.656242,126.005 122.656242,113.126 C122.656242,90.165 108.097242,68.888 86.258242,60.485 L57.699242,49.844 C59.937542,47.0432 61.621142,43.1252 62.738342,39.766 L147.859342,39.766 C151.781242,53.207 164.097342,63.844 178.660342,63.844 C193.219342,63.844 206.101342,53.766 209.461342,39.766 L294.582342,39.766 C298.504242,53.207 310.820342,63.844 325.383342,63.844 C343.305342,63.844 357.305342,49.285 357.305342,31.922 C357.305342,14 342.746342,0 325.383342,0 C310.262342,0 297.942342,10.078 294.582342,24.078 L209.461342,24.081906 C205.539442,10.640906 193.223342,0.003906 178.660342,0.003906 C164.101342,0.003906 151.219342,10.081906 147.859342,24.081906 L62.738342,24.081906 C58.816442,10.640906 46.500342,0.003906 31.937342,0.003906 C14.015342,0.003906 0.0153420409,14.562906 0.0153420409,31.925906 C-0.539347959,48.159906 14.019342,62.722906 31.941342,62.722906 L31.941442,62.723294 Z M341.061442,300.723294 C341.061442,309.121694 334.342642,316.403294 325.381442,316.403294 C316.983042,316.403294 309.701442,309.684494 309.701442,300.723294 C309.701442,292.324894 316.420242,285.043294 325.381442,285.043294 C334.342342,285.601884 341.061442,292.320594 341.061442,300.723294 Z M325.381442,160.163294 C333.779842,160.163294 341.061442,166.882094 341.061442,175.843294 C341.061442,184.241694 334.342642,191.523294 325.381442,191.523294 C316.983042,191.523294 309.701442,184.804494 309.701442,175.843294 C310.263942,166.886294 316.982642,160.163294 325.381442,160.163294 Z M194.341442,175.284294 C194.341442,183.682694 187.622642,190.964294 178.661442,190.964294 C169.700242,190.964294 162.981442,184.245494 162.981442,175.284294 C162.981442,166.885894 169.700242,159.604294 178.661442,159.604294 C187.622642,159.604294 194.341442,166.885494 194.341442,175.284294 Z M325.381442,15.124294 C333.779842,15.124294 341.061442,21.843094 341.061442,30.804294 C341.061442,39.202694 334.342642,46.484294 325.381442,46.484294 C316.983042,46.484294 309.701442,39.765494 309.701442,30.804294 C310.263942,21.843394 316.982642,15.124294 325.381442,15.124294 L325.381442,15.124294 Z M178.661442,15.124294 C187.059842,15.124294 194.341442,21.843094 194.341442,30.804294 C194.341442,39.202694 187.622642,46.484294 178.661442,46.484294 C170.263042,46.484294 162.981442,39.765494 162.981442,30.804294 C162.981442,21.843394 170.262642,15.124294 178.661442,15.124294 Z M31.941442,15.124294 C40.339842,15.124294 47.621442,21.843094 47.621442,30.804294 C47.621442,39.202694 40.902642,46.484294 31.941442,46.484294 C23.543042,46.484294 16.261442,39.765494 16.261442,30.804294 C16.261442,21.843394 22.980242,15.124294 31.941442,15.124294 Z" id="Shape"></path>
        </g>
    </g>
</svg>