<?xml version="1.0" encoding="UTF-8"?>
<svg width="374px" height="470px" viewBox="0 0 374 470" version="1.1" xmlns="http://www.w3.org/2000/svg" xmlns:xlink="http://www.w3.org/1999/xlink">
    <title>Shape</title>
    <g id="Page-1" stroke="none" stroke-width="1" fill="none" fill-rule="evenodd">
        <g id="noun-healthcare-1262591" transform="translate(0.334000, 0.548000)" fill="#FFFFFF" fill-rule="nonzero">
            <path d="M349.996,93.332 C311.402,93.332 279.996,61.926 279.996,23.332 L279.996,-7.10542736e-15 L93.336,-7.10542736e-15 L93.336,23.332 C93.336,61.926 61.93,93.332 23.336,93.332 L0,93.332 L0,280.002 C0,382.392 158.99,456.492 177.12,464.642 L186.663,468.9115 L196.206,464.642 C214.335,456.5209 373.326,382.392 373.326,280.002 L373.326,93.332 L349.996,93.332 Z M256.664,256.672 L209.996,256.672 L209.996,303.34 L163.328,303.34 L163.328,256.672 L116.664,256.672 L116.664,210.004 L163.332,210.004 L163.332,163.336 L210,163.336 L210,210.004 L256.668,210.004 L256.664,256.672 Z" id="Shape"></path>
        </g>
    </g>
</svg>