<?xml version="1.0" encoding="UTF-8"?>
<svg width="486px" height="448px" viewBox="0 0 486 448" version="1.1" xmlns="http://www.w3.org/2000/svg" xmlns:xlink="http://www.w3.org/1999/xlink">
    <title>noun-java-903471</title>
    <g id="Page-1" stroke="none" stroke-width="1" fill="none" fill-rule="evenodd">
        <g id="noun-java-903471" transform="translate(0.670000, -0.002000)" fill="#FFFFFF" fill-rule="nonzero">
            <polygon id="Path" points="373.33 373.332 56 373.332 56 168.002 373.33 168.002 373.33 112.002 261.33 112.002 261.33 0.002 -2.84217094e-14 0.002 -2.84217094e-14 448.002 373.33 448.002"></polygon>
            <polygon id="Path" points="280 93.332 373.332 93.332 280 -2.84217094e-14"></polygon>
            <polygon id="Path" points="410.66 242.672 429.328 242.672 429.328 261.34 410.66 261.34"></polygon>
            <path d="M485.33,354.672 L485.33,186.672 L74.66,186.672 L74.66,354.672 L485.33,354.672 Z M391.998,224.002 L447.998,224.002 L447.998,317.334 L429.33,317.334 L429.33,280.002 L410.662,280.002 L410.662,317.334 L391.994,317.334 L391.998,224.002 Z M130.658,317.334 L111.99,317.334 L111.99,298.666 L130.658,298.666 L130.658,317.334 Z M205.326,242.67 L186.658,242.67 L186.658,317.338 L149.326,317.338 L149.326,298.67 L167.994,298.67 L167.994,242.67 L149.326,242.67 L149.326,224.002 L205.326,224.002 L205.326,242.67 Z M279.994,317.334 L261.326,317.334 L261.326,280.002 L242.658,280.002 L242.658,317.334 L223.99,317.334 L223.99,224.002 L279.99,224.002 L279.994,317.334 Z M354.658,317.334 L335.99,317.334 L335.99,298.666 L317.322,298.666 L317.322,279.998 L298.654,279.998 L298.654,223.998 L317.322,223.998 L317.322,279.998 L354.658,279.998 L354.658,223.998 L373.326,223.998 L373.326,279.998 L354.658,279.998 L354.658,317.334 Z" id="Shape"></path>
            <polygon id="Path" points="242.66 242.672 261.328 242.672 261.328 261.34 242.66 261.34"></polygon>
        </g>
    </g>
</svg>