<?xml version="1.0" encoding="UTF-8"?>
<svg width="405px" height="528px" viewBox="0 0 405 528" version="1.1" xmlns="http://www.w3.org/2000/svg" xmlns:xlink="http://www.w3.org/1999/xlink">
    <title>noun-notebook-1067213</title>
    <g id="Page-1" stroke="none" stroke-width="1" fill="none" fill-rule="evenodd">
        <g id="noun-notebook-1067213" transform="translate(0.173000, 0.832000)" fill="#FFFFFF" fill-rule="nonzero">
            <path d="M336.527,0 L18.297,0 C8.4962,0 0,7.8398 0,17.645 L0,508.375 C0,518.828 8.4961,526.672 18.297,526.672 L336.527,526.672 C346.3278,526.672 354.172,518.8322 354.172,508.375 L354.172,502.4922 C365.281,501.83986 376.391,497.918 385.535,491.3832 C421.473,463.2852 401.871,414.9302 356.785,409.7032 L356.785,433.2262 C358.0936,433.87854 359.3983,434.5348 360.7069,434.5348 C364.6288,436.4957 367.8944,438.4567 370.5077,441.07 C384.2307,454.14 372.4686,473.09 354.1717,477.008 L354.1717,407.09 C365.2807,406.43766 376.3907,402.5158 385.5347,395.981 C421.4727,368.536 401.8707,319.528 356.7847,314.301 L356.7847,337.824 C358.0933,338.47634 359.398,339.1326 360.7066,339.1326 C364.6285,341.0935 367.8941,343.0545 370.5074,345.6678 C384.2304,358.7378 372.4683,377.6878 354.1714,382.2618 L354.1714,312.3438 C365.2804,311.69146 375.7334,308.4219 385.5344,301.2348 C421.4724,273.7898 401.2184,225.4338 356.7844,220.2078 L356.7844,243.7308 C357.43674,243.7308 358.7453,244.38314 360.05,245.0394 C364.6242,247.0003 367.8898,248.9613 369.8508,250.9222 C383.5738,264.6452 371.8117,282.9422 354.1668,287.5162 L354.1668,217.5982 C365.2758,216.94586 375.7288,213.6763 385.5298,206.4892 C421.4678,179.0442 401.2138,130.6882 356.7798,125.4622 L356.7798,148.9852 C357.43214,148.9852 358.7407,149.63754 360.0454,150.2938 C364.6196,152.2547 367.8852,154.2157 369.8462,156.1766 C383.5692,169.8996 371.8071,188.1966 354.1622,192.7706 L354.1622,122.8526 C365.2712,122.20026 375.7242,118.9307 384.8732,111.7436 C420.8112,84.2986 401.2092,35.9426 356.1232,30.7166 L356.1232,54.2396 C357.4318,54.2396 358.7365,54.89194 360.0451,55.5482 C363.967,57.5091 367.2326,59.4701 369.8459,61.431 C383.5689,75.154 371.8068,93.451 354.1619,98.025 L354.1619,17.65 C354.1619,7.8492 346.3221,0 336.5169,0 L336.527,0 Z M256.152,137.88 L98.672,137.88 C88.8712,137.88 80.375,145.7198 80.375,155.525 L80.375,192.119 C80.375,201.9198 88.8711,209.764 98.672,209.764 L256.152,209.764 C265.9528,209.764 273.797,201.9242 273.797,192.119 L273.797,155.525 C273.797,145.7242 265.9572,137.88 256.152,137.88 Z" id="Shape"></path>
        </g>
    </g>
</svg>