<?xml version="1.0" encoding="UTF-8"?>
<svg width="641px" height="506px" viewBox="0 0 641 506" version="1.1" xmlns="http://www.w3.org/2000/svg" xmlns:xlink="http://www.w3.org/1999/xlink">
    <title>noun-prioritization-2734814</title>
    <g id="Page-1" stroke="none" stroke-width="1" fill="none" fill-rule="evenodd">
        <g id="noun-prioritization-2734814" transform="translate(0.847450, 0.601093)" fill="#FFFFFF" fill-rule="nonzero">
            <path d="M91.8025496,155.099 L510.18255,155.099 C529.35055,155.099 544.87055,139.575907 544.87055,120.410907 L544.87055,34.691907 C544.87055,15.523907 529.34755,0.003907 510.18255,0.003907 L91.8025496,-1.42108547e-14 C72.6345496,-1.42108547e-14 57.1145496,15.523 57.1145496,34.688 L57.1145496,120.411 C57.1145496,139.579 72.7555496,155.099 91.8025496,155.099 L91.8025496,155.099 Z M66.5215496,34.688907 C66.5215496,20.696907 77.8105496,9.407907 91.8025496,9.407907 L510.18255,9.407907 C524.17455,9.407907 535.46355,20.696907 535.46355,34.688907 L535.46355,120.411907 C535.46355,134.403907 524.17455,145.692907 510.18255,145.692907 L91.8025496,145.689001 C77.8105496,145.689001 66.5215496,134.400001 66.5215496,120.408001 L66.5215496,34.688907 Z" id="Shape"></path>
            <path d="M604.48255,175.208907 L186.10255,175.208907 C166.93455,175.208907 151.41455,190.731907 151.41455,209.896907 L151.41455,295.619907 C151.41455,314.787907 166.93755,330.307907 186.10255,330.307907 L604.48255,330.307907 C623.65055,330.307907 639.17055,314.784907 639.17055,295.619907 L639.17055,209.896907 C639.17055,190.732907 623.65055,175.208907 604.48255,175.208907 Z M629.76355,295.618907 C629.76355,309.610907 618.47455,320.899907 604.48255,320.899907 L186.10255,320.899907 C172.11055,320.899907 160.82155,309.610907 160.82155,295.618907 L160.82155,209.895907 C160.82155,195.903907 172.11055,184.614907 186.10255,184.614907 L604.48255,184.614907 C618.47455,184.614907 629.76355,195.903907 629.76355,209.895907 L629.76355,295.618907 Z" id="Shape"></path>
            <path d="M503.12255,349.938907 L84.7425496,349.938907 C65.5745496,349.938907 50.0545496,365.461907 50.0545496,384.626907 L50.0545496,470.349907 C50.0545496,489.517907 65.5775496,505.037907 84.7425496,505.037907 L503.12255,505.037907 C522.29055,505.037907 537.81055,489.514907 537.81055,470.349907 L537.81055,384.626907 C537.81055,365.462907 522.28755,349.938907 503.12255,349.938907 Z M528.40355,470.348907 C528.40355,484.340907 517.11455,495.629907 503.12255,495.629907 L84.7425496,495.629907 C70.7505496,495.629907 59.4615496,484.340907 59.4615496,470.348907 L59.4615496,384.625907 C59.4615496,370.633907 70.7505496,359.344907 84.7425496,359.344907 L503.12255,359.344907 C517.11455,359.344907 528.40355,370.633907 528.40355,384.625907 L528.40355,470.348907 Z" id="Shape"></path>
            <path d="M107.32255,116.179001 L160.47055,116.179001 C168.23225,116.179001 174.57955,109.827307 174.57955,102.069907 L174.57955,53.151907 C174.57955,45.390207 168.22795,39.042907 160.47055,39.042907 L107.32255,39.039001 C99.5608496,39.039001 93.2135478,45.390601 93.2135478,53.148001 L93.2135478,102.066001 C93.2096436,109.827701 99.5612496,116.179001 107.32255,116.179001 L107.32255,116.179001 Z" id="Path"></path>
            <path d="M254.77255,214.128907 L201.62455,214.128907 C193.86285,214.128907 187.51555,220.480507 187.51555,228.237907 L187.51555,277.155907 C187.51555,284.917607 193.86715,291.264907 201.62455,291.264907 L254.77255,291.264907 C262.53425,291.264907 268.88155,284.913307 268.88155,277.155907 L268.88155,228.237907 C268.88155,220.476207 262.53385,214.128907 254.77255,214.128907 Z" id="Path"></path>
            <path d="M153.42255,388.858907 L100.27455,388.858907 C92.5128496,388.858907 86.1655496,395.210507 86.1655496,402.967907 L86.1655496,451.885907 C86.1655496,459.647607 92.5171496,465.994907 100.27455,465.994907 L153.42255,465.994907 C161.18425,465.994907 167.53155,459.643307 167.53155,451.885907 L167.53155,402.967907 C167.53155,395.210107 161.18385,388.858907 153.42255,388.858907 Z" id="Path"></path>
            <path d="M104.73255,326.309007 C108.02555,326.309007 110.61145,323.723007 110.61145,320.430007 L110.61145,222.832007 L121.78345,229.300807 C124.01785,230.593807 126.60375,228.359397 125.66235,225.890607 L107.31835,180.972607 C106.37694,178.738207 103.20115,178.738207 102.26365,180.972607 L83.8026496,225.769607 C82.8612396,228.121207 85.4471496,230.472707 87.6815496,229.179807 L98.7365496,222.711007 L98.7365496,320.309007 C98.8537396,323.602007 101.44355,326.309007 104.73265,326.309007 L104.73255,326.309007 Z" id="Path"></path>
            <path d="M589.78255,216.718907 L293.93255,216.718907 C290.63955,216.718907 288.05365,219.304807 288.05365,222.597807 C288.05365,225.890807 290.63955,228.476707 293.93255,228.476707 L589.90255,228.476707 C593.19555,228.476707 595.78145,225.890807 595.78145,222.597807 C595.78145,219.304807 593.07835,216.718907 589.78535,216.718907 L589.78255,216.718907 Z" id="Path"></path>
            <path d="M589.78255,278.798907 L293.93255,278.798907 C290.63955,278.798907 288.05365,281.384807 288.05365,284.677807 C288.05365,287.970807 290.63955,290.556707 293.93255,290.556707 L589.90255,290.556707 C593.19555,290.556707 595.78145,287.970807 595.78145,284.677807 C595.78145,281.388707 593.07835,278.798907 589.78535,278.798907 L589.78255,278.798907 Z" id="Path"></path>
            <path d="M589.78255,246.818907 L293.93255,246.818907 C290.63955,246.818907 288.05365,249.404807 288.05365,252.697807 C288.05365,255.990807 290.63955,258.576707 293.93255,258.576707 L589.90255,258.576707 C593.19555,258.576707 595.78145,255.990807 595.78145,252.697807 C595.78145,249.408707 593.07835,246.818907 589.78535,246.818907 L589.78255,246.818907 Z" id="Path"></path>
            <path d="M199.63255,53.269907 L495.60255,53.269907 C498.89555,53.269907 501.48145,50.684007 501.48145,47.391007 C501.48145,44.098007 498.89555,41.512107 495.60255,41.512107 L199.63255,41.508201 C196.33955,41.508201 193.75365,44.094101 193.75365,47.387101 C193.75365,50.680101 196.45675,53.269907 199.63255,53.269907 L199.63255,53.269907 Z" id="Path"></path>
            <path d="M199.63255,115.468907 L495.60255,115.468907 C498.89555,115.468907 501.48145,112.883007 501.48145,109.590007 C501.48145,106.297007 498.89555,103.711107 495.60255,103.711107 L199.63255,103.711107 C196.33955,103.711107 193.75365,106.297007 193.75365,109.590007 C193.75365,112.883007 196.45675,115.468907 199.63255,115.468907 Z" id="Path"></path>
            <path d="M199.63255,83.488907 L495.60255,83.488907 C498.89555,83.488907 501.48145,80.903007 501.48145,77.610007 C501.48145,74.317007 498.89555,71.731107 495.60255,71.731107 L199.63255,71.731107 C196.33955,71.731107 193.75365,74.317007 193.75365,77.610007 C193.75365,80.903007 196.45675,83.488907 199.63255,83.488907 Z" id="Path"></path>
            <path d="M488.42255,391.448907 L192.45255,391.448907 C189.15955,391.448907 186.57365,394.034807 186.57365,397.327807 C186.57365,400.620807 189.15955,403.206707 192.45255,403.206707 L488.42255,403.206707 C491.71555,403.206707 494.30145,400.620807 494.30145,397.327807 C494.30145,394.038707 491.71555,391.448907 488.42255,391.448907 L488.42255,391.448907 Z" id="Path"></path>
            <path d="M488.42255,453.538907 L192.45255,453.538907 C189.15955,453.538907 186.57365,456.124807 186.57365,459.417807 C186.57365,462.710807 189.15955,465.296707 192.45255,465.296707 L488.42255,465.296707 C491.71555,465.296707 494.30145,462.710807 494.30145,459.417807 C494.30145,456.124807 491.71555,453.538907 488.42255,453.538907 L488.42255,453.538907 Z" id="Path"></path>
            <path d="M488.42255,421.558907 L192.45255,421.558907 C189.15955,421.558907 186.57365,424.144807 186.57365,427.437807 C186.57365,430.730807 189.15955,433.316707 192.45255,433.316707 L488.42255,433.316707 C491.71555,433.316707 494.30145,430.730807 494.30145,427.437807 C494.30145,424.144807 491.71555,421.558907 488.42255,421.558907 L488.42255,421.558907 Z" id="Path"></path>
            <path d="M38.0625496,101.128907 L26.8905496,107.597707 L26.8905496,9.999707 C26.8905496,6.706707 24.3046496,4.120807 21.0116496,4.120807 C17.7186496,4.120807 15.1327496,6.706707 15.1327496,9.999707 L15.1327496,107.597707 L4.07774956,101.128907 C1.84334956,99.835907 -0.742550441,102.070317 0.198849559,104.539107 L18.5428496,149.457107 C19.4842596,151.691507 22.6600496,151.691507 23.5975496,149.457107 L41.9415496,104.539107 C43.0040496,102.070307 40.4142496,99.836007 38.0626496,101.128907 L38.0625496,101.128907 Z" id="Path"></path>
        </g>
    </g>
</svg>