<?xml version="1.0" encoding="UTF-8"?>
<svg width="495px" height="386px" viewBox="0 0 495 386" version="1.1" xmlns="http://www.w3.org/2000/svg" xmlns:xlink="http://www.w3.org/1999/xlink">
    <title>noun-programmer-4145883</title>
    <g id="Page-1" stroke="none" stroke-width="1" fill="none" fill-rule="evenodd">
        <g id="noun-programmer-4145883" transform="translate(0.070000, 0.524639)" fill="#FFFFFF" fill-rule="nonzero">
            <path d="M25.02,0.0223613333 C11.149,0.0223613333 2.84217094e-14,11.1393613 2.84217094e-14,25.0103613 L2.84217094e-14,177.810361 C2.84217094e-14,191.681361 11.148,202.798361 25.02,202.798361 L116.536,202.798361 L116.536,215.435361 C102.63,215.435361 91.255,229.529361 91.255,239.900361 L91.255,248.400361 C91.255,250.919861 92.6808,252.123061 94.9581,252.123061 L183.5201,252.123061 C185.7584,252.123061 187.192,250.923861 187.192,248.400361 L187.192,239.900361 C187.192,229.529361 175.817,215.435361 161.95,215.435361 L161.946094,202.798361 L237.091094,202.798361 C254.888094,202.798361 254.888094,171.294361 237.091094,171.294361 L39.221094,171.294361 C29.240594,171.294361 27.815094,165.134161 27.815094,157.493361 L27.815094,34.7633613 C27.815094,27.1110613 28.432284,20.9543613 38.413094,20.9543613 L240.053094,20.9543613 C250.033594,20.9543613 250.651094,27.1066613 250.651094,34.7633613 L250.651094,88.9153613 C250.651094,107.935361 278.463094,107.935361 278.463094,88.9153613 L278.463094,25.0053613 C278.463094,11.1653613 267.315094,0.0173613333 253.467094,0.0173613333 C177.307094,-0.0217016667 101.157094,0.0173613333 25.027094,0.0173613333 L25.02,0.0223613333 Z" id="Path"></path>
            <path d="M345.98,85.6353613 C301.523,85.6353613 265.683,120.280361 265.683,165.944361 C265.683,211.604361 301.523,246.217361 345.98,246.217361 C390.48,246.217361 426.289001,211.604361 426.289001,165.944361 C426.296812,120.280361 390.488,85.6353613 345.98,85.6353613 L345.98,85.6353613 Z" id="Path"></path>
            <path d="M296.63,258.245361 C238.427,271.499361 210.403,290.917361 199.017,345.456361 C195.8803,360.167361 200.7084,364.483361 206.7318,366.526361 C248.0208,380.495361 315.9718,385.456361 345.9818,385.456361 C375.9978,385.456361 443.9588,380.503261 485.2718,366.526361 C491.2718,364.487261 496.0998,360.174761 492.9866,345.456361 C481.6116,290.917361 453.5806,271.507361 395.3736,258.245361 L351.2716,268.354361 C347.1583,269.323111 344.8614,269.323111 340.7126,268.354361 L296.63,258.245361 Z" id="Path"></path>
            <path d="M97.09,65.6453613 C94.8244,65.6453613 92.5548,66.2938013 90.6447,67.6844613 L53.2817,95.0364613 C50.4926,97.0755613 48.8403,100.356761 48.8403,103.927061 C48.8403,107.450461 50.4965,110.759061 53.2817,112.798161 L90.6447,140.150161 C95.5744,143.685361 102.4417,142.669661 105.9767,137.747861 C109.5001,132.786961 108.4962,125.950861 103.5822,122.423861 L78.3712,103.923861 L103.5822,85.4118613 C108.5041,81.8766613 109.5041,75.0408613 105.9767,70.0798613 C103.8361,67.1696613 100.5314,65.6462613 97.09,65.6462613 L97.09,65.6453613 Z" id="Path"></path>
            <path d="M126.23,142.065361 C129.9214,142.065361 133.4527,139.768461 134.8472,136.104461 L162.1012,62.5064613 C163.8512,57.8150613 161.45276,52.6236613 156.7574,50.8384613 C152.0894,49.0532613 146.7769,51.4556513 144.9914,56.1509613 L117.7374,129.748961 C115.9874,134.440361 118.38584,139.760961 123.0499,141.545961 C124.089,141.936581 125.089,142.061581 126.0929,142.061581 L126.23,142.065361 Z" id="Path"></path>
            <path d="M181.36,142.195361 C183.6256,142.195361 185.9225,141.546921 187.8053,140.156261 L225.2073,112.804261 C227.9964,110.765161 229.6135,107.452661 229.6135,103.933161 C229.6135,100.362861 227.9963,97.0815613 225.2073,95.0425613 L187.8053,67.6905613 C182.8756,64.1319613 176.0393,65.1632613 172.4813,70.0850613 C168.9461,75.0459613 169.954,81.8820613 174.9149,85.4170613 L200.1219,103.929061 L174.9149,122.429061 C169.9618,125.964261 168.9461,132.800061 172.4813,137.753061 C174.6493,140.671061 177.9227,142.194461 181.3602,142.194461 L181.36,142.195361 Z" id="Path"></path>
        </g>
    </g>
</svg>