<?xml version="1.0" encoding="UTF-8"?>
<svg width="448px" height="449px" viewBox="0 0 448 449" version="1.1" xmlns="http://www.w3.org/2000/svg" xmlns:xlink="http://www.w3.org/1999/xlink">
    <title>noun-python-1375869</title>
    <g id="Page-1" stroke="none" stroke-width="1" fill="none" fill-rule="evenodd">
        <g id="noun-python-1375869" transform="translate(0.002204, -0.000795)" fill="#FFFFFF" fill-rule="nonzero">
            <path d="M429.377796,130.660795 L317.297796,130.660795 L317.297796,18.6307952 C255.102796,-7.15020475 188.277796,-5.25220475 130.627796,18.6307952 L130.627796,130.660795 L18.6277963,130.660795 C-7.14920366,192.859795 -5.25120366,259.680795 18.6277963,317.340795 L130.627796,317.340795 L130.627796,429.380795 C192.826796,455.157795 259.657796,453.259795 317.297796,429.380795 L317.297796,317.340795 L429.377796,317.340795 C455.147796,255.125795 453.256796,188.300795 429.377796,130.660795 Z M130.627796,261.340795 L130.627796,280.004795 L45.1007963,280.004795 C34.6667963,243.250795 34.6667963,204.711795 45.1007963,167.994795 L223.960796,167.994795 L223.960796,130.658795 L167.960796,130.658795 L167.960796,45.1117952 C186.187796,39.9476952 204.999796,37.3344952 224.073796,37.3344952 C243.061796,37.3344952 261.772796,39.9438952 279.960796,45.1000952 L279.960796,186.670095 C279.960796,196.979095 271.593596,205.334095 261.296796,205.334095 L186.632796,205.334095 C155.714796,205.341908 130.624796,230.412095 130.624796,261.346095 L130.627796,261.340795 Z M402.897796,280.004795 L223.967796,280.004795 L223.967796,317.340795 L279.967796,317.340795 L279.967796,402.902795 C261.740796,408.058995 242.944796,410.668395 223.862796,410.668395 C204.885796,410.668395 186.163796,408.058995 167.975796,402.902795 L167.975796,261.342795 C167.975796,251.014795 176.335196,242.670795 186.639796,242.670795 L261.299796,242.674701 C292.217796,242.674701 317.299796,217.608701 317.299796,186.674701 L317.299796,167.998701 L402.901796,167.998701 C413.335796,204.736701 413.335796,243.271701 402.901796,280.008701 L402.897796,280.004795 Z" id="Shape"></path>
            <path d="M233.287796,84.0007952 C233.287796,94.3097952 224.932296,102.664795 214.623796,102.664795 C204.315296,102.664795 195.959796,94.3092952 195.959796,84.0007952 C195.959796,73.6922952 204.315296,65.3367952 214.623796,65.3367952 C224.932296,65.3367952 233.287796,73.6922952 233.287796,84.0007952" id="Path"></path>
            <path d="M251.957796,364.000795 C251.957796,374.309795 243.598396,382.664795 233.289796,382.664795 C222.980796,382.664795 214.625796,374.309295 214.625796,364.000795 C214.625796,353.692295 222.981296,345.336795 233.289796,345.336795 C243.598796,345.336795 251.957796,353.692295 251.957796,364.000795" id="Path"></path>
        </g>
    </g>
</svg>