<?xml version="1.0" encoding="UTF-8"?>
<svg width="460px" height="460px" viewBox="0 0 460 460" version="1.1" xmlns="http://www.w3.org/2000/svg" xmlns:xlink="http://www.w3.org/1999/xlink">
    <title>noun-reading-aloud-91487</title>
    <g id="Page-1" stroke="none" stroke-width="1" fill="none" fill-rule="evenodd">
        <g id="noun-reading-aloud-91487" transform="translate(0.390000, 0.378000)" fill="#FFFFFF" fill-rule="nonzero">
            <path d="M235.21,89.602 C235.21,139.086 195.093,179.2 145.608,179.2 C96.123,179.2 56.006,139.087 56.006,89.602 C56.006,40.117 96.123,-1.42108547e-14 145.608,-1.42108547e-14 C195.093,-1.42108547e-14 235.21,40.117 235.21,89.602" id="Path"></path>
            <path d="M2.84217094e-14,235.212 C2.84217094e-14,204.294 25.078,179.212 56.004,179.212 C86.922,179.212 112.004,204.294 112.004,235.212 L112.004,369.622 L246.404,369.610281 C271.146,369.610281 291.205,389.669281 291.205,414.411281 C291.205,439.153281 271.146,459.212281 246.404,459.212281 L0.004,459.223999 L0.004,347.223999 L2.84217094e-14,235.212 Z" id="Path"></path>
            <path d="M302.41,235.212 C302.41,266.138 277.336,291.212 246.41,291.212 C215.48,291.212 190.41,266.138 190.41,235.212 C190.41,204.282 215.48,179.212 246.41,179.212 C277.336,179.212 302.41,204.282 302.41,235.212" id="Path"></path>
            <path d="M134.4,347.212 C134.4,316.294 159.478,291.212 190.4,291.212 C221.326,291.212 246.408,316.294 246.408,347.212 L134.4,347.212 Z" id="Path"></path>
            <polygon id="Path" points="375.21 291.222 364.007 313.632 414.409 347.222 347.21 347.222 291.21 459.222 403.21 459.222 459.21 347.222"></polygon>
        </g>
    </g>
</svg>